<svg xmlns="http://www.w3.org/2000/svg" xmlns:xlink="http://www.w3.org/1999/xlink" contentStyleType="text/css" data-diagram-type="SEQUENCE" height="1818px" preserveAspectRatio="none" style="width:1773px;height:1818px;background:#FFFFFF;" version="1.1" viewBox="0 0 1773 1818" width="1773px" zoomAndPan="magnify"><title>Exo Core Object Interaction Flow</title><defs/><g><text fill="#000000" font-family="sans-serif" font-size="14" font-weight="bold" lengthAdjust="spacing" textLength="259.2119" x="755.9661" y="27.9951">Exo Core Object Interaction Flow</text><g><title>main.py</title><rect fill="#FFFFFF" height="1563.3047" style="stroke:#181818;stroke-width:1;" width="10" x="150.5542" y="152.0234"/></g><g><title>Node</title><rect fill="#FFFFFF" height="1534.1719" style="stroke:#181818;stroke-width:1;" width="10" x="320.3008" y="181.1563"/></g><g><title>User</title><rect fill="#000000" fill-opacity="0.00000" height="1603.4375" width="8" x="19.9551" y="120.8906"/><line style="stroke:#181818;stroke-width:0.5;stroke-dasharray:5,5;" x1="23" x2="23" y1="120.8906" y2="1724.3281"/></g><g><title>main.py</title><rect fill="#000000" fill-opacity="0.00000" height="1603.4375" width="8" x="151.5542" y="120.8906"/><line style="stroke:#181818;stroke-width:0.5;stroke-dasharray:5,5;" x1="155.0747" x2="155.0747" y1="120.8906" y2="1724.3281"/></g><g><title>Node</title><rect fill="#000000" fill-opacity="0.00000" height="1603.4375" width="8" x="321.3008" y="120.8906"/><line style="stroke:#181818;stroke-width:0.5;stroke-dasharray:5,5;" x1="324.8569" x2="324.8569" y1="120.8906" y2="1724.3281"/></g><g><title>Topology</title><rect fill="#000000" fill-opacity="0.00000" height="1603.4375" width="8" x="604.2432" y="120.8906"/><line style="stroke:#181818;stroke-width:0.5;stroke-dasharray:5,5;" x1="607.2622" x2="607.2622" y1="120.8906" y2="1724.3281"/></g><g><title>Discovery</title><rect fill="#000000" fill-opacity="0.00000" height="1603.4375" width="8" x="793.1489" y="120.8906"/><line style="stroke:#181818;stroke-width:0.5;stroke-dasharray:5,5;" x1="796.4702" x2="796.4702" y1="120.8906" y2="1724.3281"/></g><g><title>GRPCServer</title><rect fill="#000000" fill-opacity="0.00000" height="1603.4375" width="8" x="942.6191" y="120.8906"/><line style="stroke:#181818;stroke-width:0.5;stroke-dasharray:5,5;" x1="945.8276" x2="945.8276" y1="120.8906" y2="1724.3281"/></g><g><title>InferenceEngine</title><rect fill="#000000" fill-opacity="0.00000" height="1603.4375" width="8" x="1086.4497" y="120.8906"/><line style="stroke:#181818;stroke-width:0.5;stroke-dasharray:5,5;" x1="1090.4106" x2="1090.4106" y1="120.8906" y2="1724.3281"/></g><g><title>ShardDownloader</title><rect fill="#000000" fill-opacity="0.00000" height="1603.4375" width="8" x="1259.0166" y="120.8906"/><line style="stroke:#181818;stroke-width:0.5;stroke-dasharray:5,5;" x1="1262.5464" x2="1262.5464" y1="120.8906" y2="1724.3281"/></g><g><title>ChatGPTAPI</title><rect fill="#000000" fill-opacity="0.00000" height="1603.4375" width="8" x="1397.0571" y="120.8906"/><line style="stroke:#181818;stroke-width:0.5;stroke-dasharray:5,5;" x1="1400.4868" x2="1400.4868" y1="120.8906" y2="1724.3281"/></g><g><title>TopologyViz</title><rect fill="#000000" fill-opacity="0.00000" height="1603.4375" width="8" x="1516.9961" y="120.8906"/><line style="stroke:#181818;stroke-width:0.5;stroke-dasharray:5,5;" x1="1520.6274" x2="1520.6274" y1="120.8906" y2="1724.3281"/></g><g><title>Model</title><rect fill="#000000" fill-opacity="0.00000" height="1603.4375" width="8" x="1618.9009" y="120.8906"/><line style="stroke:#181818;stroke-width:0.5;stroke-dasharray:5,5;" x1="1622.3647" x2="1622.3647" y1="120.8906" y2="1724.3281"/></g><g><title>Peer Nodes</title><rect fill="#000000" fill-opacity="0.00000" height="1603.4375" width="8" x="1716.2905" y="120.8906"/><line style="stroke:#181818;stroke-width:0.5;stroke-dasharray:5,5;" x1="1719.437" x2="1719.437" y1="120.8906" y2="1724.3281"/></g><g class="participant participant-head" data-participant="User"><text fill="#000000" font-family="sans-serif" font-size="14" lengthAdjust="spacing" textLength="31.9102" x="5" y="117.5889">User</text><ellipse cx="23.9551" cy="53.0938" fill="#E2E2F0" rx="8" ry="8" style="stroke:#181818;stroke-width:0.5;"/><path d="M23.9551,61.0938 L23.9551,88.0938 M10.9551,69.0938 L36.9551,69.0938 M23.9551,88.0938 L10.9551,103.0938 M23.9551,88.0938 L36.9551,103.0938" fill="none" style="stroke:#181818;stroke-width:0.5;"/></g><g class="participant participant-tail" data-participant="User"><text fill="#000000" font-family="sans-serif" font-size="14" lengthAdjust="spacing" textLength="31.9102" x="5" y="1736.3232">User</text><ellipse cx="23.9551" cy="1748.125" fill="#E2E2F0" rx="8" ry="8" style="stroke:#181818;stroke-width:0.5;"/><path d="M23.9551,1756.125 L23.9551,1783.125 M10.9551,1764.125 L36.9551,1764.125 M23.9551,1783.125 L10.9551,1798.125 M23.9551,1783.125 L36.9551,1798.125" fill="none" style="stroke:#181818;stroke-width:0.5;"/></g><g class="participant participant-head" data-participant="main"><rect fill="#E2E2F0" height="46.5938" rx="2.5" ry="2.5" style="stroke:#181818;stroke-width:0.5;" width="90.959" x="110.0747" y="73.2969"/><text fill="#000000" font-family="sans-serif" font-size="14" lengthAdjust="spacing" textLength="56.6016" x="127.2534" y="93.292">main.py</text><text fill="#000000" font-family="sans-serif" font-size="14" lengthAdjust="spacing" textLength="76.959" x="117.0747" y="109.5889">Entry Point</text></g><g class="participant participant-tail" data-participant="main"><rect fill="#E2E2F0" height="46.5938" rx="2.5" ry="2.5" style="stroke:#181818;stroke-width:0.5;" width="90.959" x="110.0747" y="1723.3281"/><text fill="#000000" font-family="sans-serif" font-size="14" lengthAdjust="spacing" textLength="56.6016" x="127.2534" y="1743.3232">main.py</text><text fill="#000000" font-family="sans-serif" font-size="14" lengthAdjust="spacing" textLength="76.959" x="117.0747" y="1759.6201">Entry Point</text></g><g class="participant participant-head" data-participant="node"><rect fill="#E2E2F0" height="46.5938" rx="2.5" ry="2.5" style="stroke:#181818;stroke-width:0.5;" width="102.8877" x="273.8569" y="73.2969"/><text fill="#000000" font-family="sans-serif" font-size="14" lengthAdjust="spacing" textLength="36.5381" x="307.0317" y="93.292">Node</text><text fill="#000000" font-family="sans-serif" font-size="14" lengthAdjust="spacing" textLength="88.8877" x="280.8569" y="109.5889">Orchestrator</text></g><g class="participant participant-tail" data-participant="node"><rect fill="#E2E2F0" height="46.5938" rx="2.5" ry="2.5" style="stroke:#181818;stroke-width:0.5;" width="102.8877" x="273.8569" y="1723.3281"/><text fill="#000000" font-family="sans-serif" font-size="14" lengthAdjust="spacing" textLength="36.5381" x="307.0317" y="1743.3232">Node</text><text fill="#000000" font-family="sans-serif" font-size="14" lengthAdjust="spacing" textLength="88.8877" x="280.8569" y="1759.6201">Orchestrator</text></g><g class="participant participant-head" data-participant="topology"><rect fill="#E2E2F0" height="46.5938" rx="2.5" ry="2.5" style="stroke:#181818;stroke-width:0.5;" width="113.9619" x="551.2622" y="73.2969"/><text fill="#000000" font-family="sans-serif" font-size="14" lengthAdjust="spacing" textLength="64.1963" x="576.145" y="93.292">Topology</text><text fill="#000000" font-family="sans-serif" font-size="14" lengthAdjust="spacing" textLength="99.9619" x="558.2622" y="109.5889">Network State</text></g><g class="participant participant-tail" data-participant="topology"><rect fill="#E2E2F0" height="46.5938" rx="2.5" ry="2.5" style="stroke:#181818;stroke-width:0.5;" width="113.9619" x="551.2622" y="1723.3281"/><text fill="#000000" font-family="sans-serif" font-size="14" lengthAdjust="spacing" textLength="64.1963" x="576.145" y="1743.3232">Topology</text><text fill="#000000" font-family="sans-serif" font-size="14" lengthAdjust="spacing" textLength="99.9619" x="558.2622" y="1759.6201">Network State</text></g><g class="participant participant-head" data-participant="discovery"><rect fill="#E2E2F0" height="46.5938" rx="2.5" ry="2.5" style="stroke:#181818;stroke-width:0.5;" width="139.3574" x="727.4702" y="73.2969"/><text fill="#000000" font-family="sans-serif" font-size="14" lengthAdjust="spacing" textLength="69.166" x="762.5659" y="93.292">Discovery</text><text fill="#000000" font-family="sans-serif" font-size="14" lengthAdjust="spacing" textLength="125.3574" x="734.4702" y="109.5889">Service Discovery</text></g><g class="participant participant-tail" data-participant="discovery"><rect fill="#E2E2F0" height="46.5938" rx="2.5" ry="2.5" style="stroke:#181818;stroke-width:0.5;" width="139.3574" x="727.4702" y="1723.3281"/><text fill="#000000" font-family="sans-serif" font-size="14" lengthAdjust="spacing" textLength="69.166" x="762.5659" y="1743.3232">Discovery</text><text fill="#000000" font-family="sans-serif" font-size="14" lengthAdjust="spacing" textLength="125.3574" x="734.4702" y="1759.6201">Service Discovery</text></g><g class="participant participant-head" data-participant="server"><rect fill="#E2E2F0" height="46.5938" rx="2.5" ry="2.5" style="stroke:#181818;stroke-width:0.5;" width="139.583" x="876.8276" y="73.2969"/><text fill="#000000" font-family="sans-serif" font-size="14" lengthAdjust="spacing" textLength="84.7041" x="904.2671" y="93.292">GRPCServer</text><text fill="#000000" font-family="sans-serif" font-size="14" lengthAdjust="spacing" textLength="125.583" x="883.8276" y="109.5889">Network Interface</text></g><g class="participant participant-tail" data-participant="server"><rect fill="#E2E2F0" height="46.5938" rx="2.5" ry="2.5" style="stroke:#181818;stroke-width:0.5;" width="139.583" x="876.8276" y="1723.3281"/><text fill="#000000" font-family="sans-serif" font-size="14" lengthAdjust="spacing" textLength="84.7041" x="904.2671" y="1743.3232">GRPCServer</text><text fill="#000000" font-family="sans-serif" font-size="14" lengthAdjust="spacing" textLength="125.583" x="883.8276" y="1759.6201">Network Interface</text></g><g class="participant participant-head" data-participant="engine"><rect fill="#E2E2F0" height="46.5938" rx="2.5" ry="2.5" style="stroke:#181818;stroke-width:0.5;" width="128.0781" x="1026.4106" y="73.2969"/><text fill="#000000" font-family="sans-serif" font-size="14" lengthAdjust="spacing" textLength="114.0781" x="1033.4106" y="93.292">InferenceEngine</text><text fill="#000000" font-family="sans-serif" font-size="14" lengthAdjust="spacing" textLength="108.7803" x="1036.0596" y="109.5889">(MLX/TinyGrad)</text></g><g class="participant participant-tail" data-participant="engine"><rect fill="#E2E2F0" height="46.5938" rx="2.5" ry="2.5" style="stroke:#181818;stroke-width:0.5;" width="128.0781" x="1026.4106" y="1723.3281"/><text fill="#000000" font-family="sans-serif" font-size="14" lengthAdjust="spacing" textLength="114.0781" x="1033.4106" y="1743.3232">InferenceEngine</text><text fill="#000000" font-family="sans-serif" font-size="14" lengthAdjust="spacing" textLength="108.7803" x="1036.0596" y="1759.6201">(MLX/TinyGrad)</text></g><g class="participant participant-head" data-participant="downloader"><rect fill="#E2E2F0" height="46.5938" rx="2.5" ry="2.5" style="stroke:#181818;stroke-width:0.5;" width="138.9404" x="1193.5464" y="73.2969"/><text fill="#000000" font-family="sans-serif" font-size="14" lengthAdjust="spacing" textLength="124.9404" x="1200.5464" y="93.292">ShardDownloader</text><text fill="#000000" font-family="sans-serif" font-size="14" lengthAdjust="spacing" textLength="107.8506" x="1209.0913" y="109.5889">Model Manager</text></g><g class="participant participant-tail" data-participant="downloader"><rect fill="#E2E2F0" height="46.5938" rx="2.5" ry="2.5" style="stroke:#181818;stroke-width:0.5;" width="138.9404" x="1193.5464" y="1723.3281"/><text fill="#000000" font-family="sans-serif" font-size="14" lengthAdjust="spacing" textLength="124.9404" x="1200.5464" y="1743.3232">ShardDownloader</text><text fill="#000000" font-family="sans-serif" font-size="14" lengthAdjust="spacing" textLength="107.8506" x="1209.0913" y="1759.6201">Model Manager</text></g><g class="participant participant-head" data-participant="api"><rect fill="#E2E2F0" height="46.5938" rx="2.5" ry="2.5" style="stroke:#181818;stroke-width:0.5;" width="117.1406" x="1342.4868" y="73.2969"/><text fill="#000000" font-family="sans-serif" font-size="14" lengthAdjust="spacing" textLength="82.708" x="1359.7031" y="93.292">ChatGPTAPI</text><text fill="#000000" font-family="sans-serif" font-size="14" lengthAdjust="spacing" textLength="103.1406" x="1349.4868" y="109.5889">REST Interface</text></g><g class="participant participant-tail" data-participant="api"><rect fill="#E2E2F0" height="46.5938" rx="2.5" ry="2.5" style="stroke:#181818;stroke-width:0.5;" width="117.1406" x="1342.4868" y="1723.3281"/><text fill="#000000" font-family="sans-serif" font-size="14" lengthAdjust="spacing" textLength="82.708" x="1359.7031" y="1743.3232">ChatGPTAPI</text><text fill="#000000" font-family="sans-serif" font-size="14" lengthAdjust="spacing" textLength="103.1406" x="1349.4868" y="1759.6201">REST Interface</text></g><g class="participant participant-head" data-participant="viz"><rect fill="#E2E2F0" height="46.5938" rx="2.5" ry="2.5" style="stroke:#181818;stroke-width:0.5;" width="102.7373" x="1469.6274" y="73.2969"/><text fill="#000000" font-family="sans-serif" font-size="14" lengthAdjust="spacing" textLength="85.0117" x="1478.4902" y="93.292">TopologyViz</text><text fill="#000000" font-family="sans-serif" font-size="14" lengthAdjust="spacing" textLength="88.7373" x="1476.6274" y="109.5889">Visualization</text></g><g class="participant participant-tail" data-participant="viz"><rect fill="#E2E2F0" height="46.5938" rx="2.5" ry="2.5" style="stroke:#181818;stroke-width:0.5;" width="102.7373" x="1469.6274" y="1723.3281"/><text fill="#000000" font-family="sans-serif" font-size="14" lengthAdjust="spacing" textLength="85.0117" x="1478.4902" y="1743.3232">TopologyViz</text><text fill="#000000" font-family="sans-serif" font-size="14" lengthAdjust="spacing" textLength="88.7373" x="1476.6274" y="1759.6201">Visualization</text></g><g class="participant participant-head" data-participant="models"><text fill="#000000" font-family="sans-serif" font-size="14" lengthAdjust="spacing" textLength="42.0342" x="1598.8838" y="101.292">Model</text><text fill="#000000" font-family="sans-serif" font-size="14" lengthAdjust="spacing" textLength="75.0723" x="1582.3647" y="117.5889">Repository</text><path d="M1604.9009,52.2969 C1604.9009,42.2969 1622.9009,42.2969 1622.9009,42.2969 C1622.9009,42.2969 1640.9009,42.2969 1640.9009,52.2969 L1640.9009,78.2969 C1640.9009,88.2969 1622.9009,88.2969 1622.9009,88.2969 C1622.9009,88.2969 1604.9009,88.2969 1604.9009,78.2969 L1604.9009,52.2969" fill="#E2E2F0" style="stroke:#181818;stroke-width:0.5;"/><path d="M1604.9009,52.2969 C1604.9009,62.2969 1622.9009,62.2969 1622.9009,62.2969 C1622.9009,62.2969 1640.9009,62.2969 1640.9009,52.2969" fill="none" style="stroke:#181818;stroke-width:0.5;"/></g><g class="participant participant-tail" data-participant="models"><text fill="#000000" font-family="sans-serif" font-size="14" lengthAdjust="spacing" textLength="42.0342" x="1598.8838" y="1736.3232">Model</text><text fill="#000000" font-family="sans-serif" font-size="14" lengthAdjust="spacing" textLength="75.0723" x="1582.3647" y="1752.6201">Repository</text><path d="M1604.9009,1765.9219 C1604.9009,1755.9219 1622.9009,1755.9219 1622.9009,1755.9219 C1622.9009,1755.9219 1640.9009,1755.9219 1640.9009,1765.9219 L1640.9009,1791.9219 C1640.9009,1801.9219 1622.9009,1801.9219 1622.9009,1801.9219 C1622.9009,1801.9219 1604.9009,1801.9219 1604.9009,1791.9219 L1604.9009,1765.9219" fill="#E2E2F0" style="stroke:#181818;stroke-width:0.5;"/><path d="M1604.9009,1765.9219 C1604.9009,1775.9219 1622.9009,1775.9219 1622.9009,1775.9219 C1622.9009,1775.9219 1640.9009,1775.9219 1640.9009,1765.9219" fill="none" style="stroke:#181818;stroke-width:0.5;"/></g><g class="participant participant-head" data-participant="peers"><rect fill="#E2E2F0" height="30.2969" rx="2.5" ry="2.5" style="stroke:#181818;stroke-width:0.5;" width="93.707" x="1673.437" y="89.5938"/><text fill="#000000" font-family="sans-serif" font-size="14" lengthAdjust="spacing" textLength="79.707" x="1680.437" y="109.5889">Peer Nodes</text></g><g class="participant participant-tail" data-participant="peers"><rect fill="#E2E2F0" height="30.2969" rx="2.5" ry="2.5" style="stroke:#181818;stroke-width:0.5;" width="93.707" x="1673.437" y="1723.3281"/><text fill="#000000" font-family="sans-serif" font-size="14" lengthAdjust="spacing" textLength="79.707" x="1680.437" y="1743.3232">Peer Nodes</text></g><g><title>main.py</title><rect fill="#FFFFFF" height="1563.3047" style="stroke:#181818;stroke-width:1;" width="10" x="150.5542" y="152.0234"/></g><g><title>Node</title><rect fill="#FFFFFF" height="1534.1719" style="stroke:#181818;stroke-width:1;" width="10" x="320.3008" y="181.1563"/></g><g class="message" data-participant-1="User" data-participant-2="main"><polygon fill="#181818" points="138.5542,148.0234,148.5542,152.0234,138.5542,156.0234,142.5542,152.0234" style="stroke:#181818;stroke-width:1;"/><line style="stroke:#181818;stroke-width:1;" x1="23.9551" x2="144.5542" y1="152.0234" y2="152.0234"/><text fill="#000000" font-family="sans-serif" font-size="13" lengthAdjust="spacing" textLength="107.5991" x="30.9551" y="146.9575">Start application</text></g><g class="message" data-participant-1="main" data-participant-2="node"><polygon fill="#181818" points="308.3008,177.1563,318.3008,181.1563,308.3008,185.1563,312.3008,181.1563" style="stroke:#181818;stroke-width:1;"/><line style="stroke:#181818;stroke-width:1;" x1="160.5542" x2="314.3008" y1="181.1563" y2="181.1563"/><text fill="#000000" font-family="sans-serif" font-size="13" lengthAdjust="spacing" textLength="140.7466" x="167.5542" y="176.0903">Create Node instance</text></g><g class="message" data-participant-1="main" data-participant-2="downloader"><polygon fill="#181818" points="1251.0166,206.2891,1261.0166,210.2891,1251.0166,214.2891,1255.0166,210.2891" style="stroke:#181818;stroke-width:1;"/><line style="stroke:#181818;stroke-width:1;" x1="160.5542" x2="1257.0166" y1="210.2891" y2="210.2891"/><text fill="#000000" font-family="sans-serif" font-size="13" lengthAdjust="spacing" textLength="163.6299" x="167.5542" y="205.2231">Create ShardDownloader</text></g><g class="message" data-participant-1="node" data-participant-2="topology"><polygon fill="#181818" points="596.2432,235.4219,606.2432,239.4219,596.2432,243.4219,600.2432,239.4219" style="stroke:#181818;stroke-width:1;"/><line style="stroke:#181818;stroke-width:1;" x1="330.3008" x2="602.2432" y1="239.4219" y2="239.4219"/><text fill="#000000" font-family="sans-serif" font-size="13" lengthAdjust="spacing" textLength="118.1489" x="337.3008" y="234.356">Initialize Topology</text></g><g class="message" data-participant-1="node" data-participant-2="discovery"><polygon fill="#181818" points="785.1489,264.5547,795.1489,268.5547,785.1489,272.5547,789.1489,268.5547" style="stroke:#181818;stroke-width:1;"/><line style="stroke:#181818;stroke-width:1;" x1="330.3008" x2="791.1489" y1="268.5547" y2="268.5547"/><text fill="#000000" font-family="sans-serif" font-size="13" lengthAdjust="spacing" textLength="277.0308" x="337.3008" y="263.4888">Initialize Discovery (UDP/Tailscale/Manual)</text></g><g class="message" data-participant-1="node" data-participant-2="server"><polygon fill="#181818" points="934.6191,293.6875,944.6191,297.6875,934.6191,301.6875,938.6191,297.6875" style="stroke:#181818;stroke-width:1;"/><line style="stroke:#181818;stroke-width:1;" x1="330.3008" x2="940.6191" y1="297.6875" y2="297.6875"/><text fill="#000000" font-family="sans-serif" font-size="13" lengthAdjust="spacing" textLength="137.1919" x="337.3008" y="292.6216">Initialize GRPCServer</text></g><g class="message" data-participant-1="node" data-participant-2="engine"><polygon fill="#181818" points="1078.4497,322.8203,1088.4497,326.8203,1078.4497,330.8203,1082.4497,326.8203" style="stroke:#181818;stroke-width:1;"/><line style="stroke:#181818;stroke-width:1;" x1="330.3008" x2="1084.4497" y1="326.8203" y2="326.8203"/><text fill="#000000" font-family="sans-serif" font-size="13" lengthAdjust="spacing" textLength="164.4678" x="337.3008" y="321.7544">Initialize InferenceEngine</text></g><g class="message" data-participant-1="node" data-participant-2="viz"><polygon fill="#181818" points="1508.9961,351.9531,1518.9961,355.9531,1508.9961,359.9531,1512.9961,355.9531" style="stroke:#181818;stroke-width:1;"/><line style="stroke:#181818;stroke-width:1;" x1="330.3008" x2="1514.9961" y1="355.9531" y2="355.9531"/><text fill="#000000" font-family="sans-serif" font-size="13" lengthAdjust="spacing" textLength="204.439" x="337.3008" y="350.8872">Initialize TopologyViz (optional)</text></g><g class="message" data-participant-1="main" data-participant-2="discovery"><polygon fill="#181818" points="785.1489,381.0859,795.1489,385.0859,785.1489,389.0859,789.1489,385.0859" style="stroke:#181818;stroke-width:1;"/><line style="stroke:#181818;stroke-width:1;" x1="160.5542" x2="791.1489" y1="385.0859" y2="385.0859"/><text fill="#000000" font-family="sans-serif" font-size="13" lengthAdjust="spacing" textLength="98.3569" x="167.5542" y="380.02">Start discovery</text></g><g class="message" data-participant-1="discovery" data-participant-2="peers"><polygon fill="#181818" points="1708.2905,410.2188,1718.2905,414.2188,1708.2905,418.2188,1712.2905,414.2188" style="stroke:#181818;stroke-width:1;"/><line style="stroke:#181818;stroke-width:1;" x1="797.1489" x2="1714.2905" y1="414.2188" y2="414.2188"/><text fill="#000000" font-family="sans-serif" font-size="13" lengthAdjust="spacing" textLength="133.6055" x="804.1489" y="409.1528">Discover peer nodes</text></g><g class="message" data-participant-1="peers" data-participant-2="discovery"><polygon fill="#181818" points="808.1489,439.3516,798.1489,443.3516,808.1489,447.3516,804.1489,443.3516" style="stroke:#181818;stroke-width:1;"/><line style="stroke:#181818;stroke-width:1;stroke-dasharray:2,2;" x1="802.1489" x2="1719.2905" y1="443.3516" y2="443.3516"/><text fill="#000000" font-family="sans-serif" font-size="13" lengthAdjust="spacing" textLength="132.8882" x="814.1489" y="438.2856">Return peer handles</text></g><g class="message" data-participant-1="discovery" data-participant-2="topology"><polygon fill="#181818" points="619.2432,468.4844,609.2432,472.4844,619.2432,476.4844,615.2432,472.4844" style="stroke:#181818;stroke-width:1;"/><line style="stroke:#181818;stroke-width:1;" x1="613.2432" x2="796.1489" y1="472.4844" y2="472.4844"/><text fill="#000000" font-family="sans-serif" font-size="13" lengthAdjust="spacing" textLength="164.9058" x="625.2432" y="467.4185">Update network topology</text></g><g class="message" data-participant-1="main" data-participant-2="server"><polygon fill="#181818" points="934.6191,497.6172,944.6191,501.6172,934.6191,505.6172,938.6191,501.6172" style="stroke:#181818;stroke-width:1;"/><line style="stroke:#181818;stroke-width:1;" x1="160.5542" x2="940.6191" y1="501.6172" y2="501.6172"/><text fill="#000000" font-family="sans-serif" font-size="13" lengthAdjust="spacing" textLength="77.0415" x="167.5542" y="496.5513">Start server</text></g><g class="message" data-participant-1="server" data-participant-2="node"><polygon fill="#181818" points="341.3008,526.75,331.3008,530.75,341.3008,534.75,337.3008,530.75" style="stroke:#181818;stroke-width:1;"/><line style="stroke:#181818;stroke-width:1;" x1="335.3008" x2="945.6191" y1="530.75" y2="530.75"/><text fill="#000000" font-family="sans-serif" font-size="13" lengthAdjust="spacing" textLength="148.1543" x="347.3008" y="525.6841">Register node services</text></g><g class="message" data-participant-1="main" data-participant-2="api"><polygon fill="#181818" points="1389.0571,555.8828,1399.0571,559.8828,1389.0571,563.8828,1393.0571,559.8828" style="stroke:#181818;stroke-width:1;"/><line style="stroke:#181818;stroke-width:1;" x1="160.5542" x2="1395.0571" y1="559.8828" y2="559.8828"/><text fill="#000000" font-family="sans-serif" font-size="13" lengthAdjust="spacing" textLength="124.4141" x="167.5542" y="554.8169">Create ChatGPTAPI</text></g><g class="message" data-participant-1="api" data-participant-2="node"><polygon fill="#181818" points="341.3008,585.0156,331.3008,589.0156,341.3008,593.0156,337.3008,589.0156" style="stroke:#181818;stroke-width:1;"/><line style="stroke:#181818;stroke-width:1;" x1="335.3008" x2="1400.0571" y1="589.0156" y2="589.0156"/><text fill="#000000" font-family="sans-serif" font-size="13" lengthAdjust="spacing" textLength="122.3955" x="347.3008" y="583.9497">Register with node</text></g><g class="message" data-participant-1="User" data-participant-2="api"><polygon fill="#181818" points="1389.0571,614.1484,1399.0571,618.1484,1389.0571,622.1484,1393.0571,618.1484" style="stroke:#181818;stroke-width:1;"/><line style="stroke:#181818;stroke-width:1;" x1="23.9551" x2="1395.0571" y1="618.1484" y2="618.1484"/><text fill="#000000" font-family="sans-serif" font-size="13" lengthAdjust="spacing" textLength="163.2871" x="30.9551" y="613.0825">Request model inference</text></g><g class="message" data-participant-1="api" data-participant-2="node"><polygon fill="#181818" points="341.3008,643.2813,331.3008,647.2813,341.3008,651.2813,337.3008,647.2813" style="stroke:#181818;stroke-width:1;"/><line style="stroke:#181818;stroke-width:1;" x1="335.3008" x2="1400.0571" y1="647.2813" y2="647.2813"/><text fill="#000000" font-family="sans-serif" font-size="13" lengthAdjust="spacing" textLength="206.8511" x="347.3008" y="642.2153">process_prompt(shard, prompt)</text></g><g class="message" data-participant-1="node" data-participant-2="downloader"><polygon fill="#181818" points="1251.0166,672.4141,1261.0166,676.4141,1251.0166,680.4141,1255.0166,676.4141" style="stroke:#181818;stroke-width:1;"/><line style="stroke:#181818;stroke-width:1;" x1="330.3008" x2="1257.0166" y1="676.4141" y2="676.4141"/><text fill="#000000" font-family="sans-serif" font-size="13" lengthAdjust="spacing" textLength="134.3862" x="337.3008" y="671.3481">ensure_shard(shard)</text></g><g class="message" data-participant-1="downloader" data-participant-2="models"><polygon fill="#181818" points="1610.9009,701.5469,1620.9009,705.5469,1610.9009,709.5469,1614.9009,705.5469" style="stroke:#181818;stroke-width:1;"/><line style="stroke:#181818;stroke-width:1;" x1="1263.0166" x2="1616.9009" y1="705.5469" y2="705.5469"/><text fill="#000000" font-family="sans-serif" font-size="13" lengthAdjust="spacing" textLength="156.7109" x="1270.0166" y="700.481">Download model shards</text></g><g class="message" data-participant-1="models" data-participant-2="downloader"><polygon fill="#181818" points="1274.0166,730.6797,1264.0166,734.6797,1274.0166,738.6797,1270.0166,734.6797" style="stroke:#181818;stroke-width:1;"/><line style="stroke:#181818;stroke-width:1;stroke-dasharray:2,2;" x1="1268.0166" x2="1621.9009" y1="734.6797" y2="734.6797"/><text fill="#000000" font-family="sans-serif" font-size="13" lengthAdjust="spacing" textLength="119.2661" x="1280.0166" y="729.6138">Return model files</text></g><g class="message" data-participant-1="downloader" data-participant-2="node"><polygon fill="#181818" points="341.3008,759.8125,331.3008,763.8125,341.3008,767.8125,337.3008,763.8125" style="stroke:#181818;stroke-width:1;"/><line style="stroke:#181818;stroke-width:1;stroke-dasharray:2,2;" x1="335.3008" x2="1262.0166" y1="763.8125" y2="763.8125"/><text fill="#000000" font-family="sans-serif" font-size="13" lengthAdjust="spacing" textLength="112.0615" x="347.3008" y="758.7466">Return local path</text></g><g class="message" data-participant-1="node" data-participant-2="topology"><polygon fill="#181818" points="596.2432,788.9453,606.2432,792.9453,596.2432,796.9453,600.2432,792.9453" style="stroke:#181818;stroke-width:1;"/><line style="stroke:#181818;stroke-width:1;" x1="330.3008" x2="602.2432" y1="792.9453" y2="792.9453"/><text fill="#000000" font-family="sans-serif" font-size="13" lengthAdjust="spacing" textLength="168.7017" x="337.3008" y="787.8794">Get current network state</text></g><g class="message" data-participant-1="topology" data-participant-2="node"><polygon fill="#181818" points="341.3008,818.0781,331.3008,822.0781,341.3008,826.0781,337.3008,822.0781" style="stroke:#181818;stroke-width:1;"/><line style="stroke:#181818;stroke-width:1;stroke-dasharray:2,2;" x1="335.3008" x2="607.2432" y1="822.0781" y2="822.0781"/><text fill="#000000" font-family="sans-serif" font-size="13" lengthAdjust="spacing" textLength="179.6006" x="347.3008" y="817.0122">Return nodes &amp; capabilities</text></g><g class="message" data-participant-1="node" data-participant-2="node"><line style="stroke:#181818;stroke-width:1;" x1="330.3008" x2="372.3008" y1="851.2109" y2="851.2109"/><line style="stroke:#181818;stroke-width:1;" x1="372.3008" x2="372.3008" y1="851.2109" y2="864.2109"/><line style="stroke:#181818;stroke-width:1;" x1="331.3008" x2="372.3008" y1="864.2109" y2="864.2109"/><polygon fill="#181818" points="341.3008,860.2109,331.3008,864.2109,341.3008,868.2109,337.3008,864.2109" style="stroke:#181818;stroke-width:1;"/><text fill="#000000" font-family="sans-serif" font-size="13" lengthAdjust="spacing" textLength="248.9424" x="337.3008" y="846.145">Calculate partitions based on memory</text></g><g class="message" data-participant-1="node" data-participant-2="engine"><polygon fill="#181818" points="1078.4497,889.3438,1088.4497,893.3438,1078.4497,897.3438,1082.4497,893.3438" style="stroke:#181818;stroke-width:1;"/><line style="stroke:#181818;stroke-width:1;" x1="330.3008" x2="1084.4497" y1="893.3438" y2="893.3438"/><text fill="#000000" font-family="sans-serif" font-size="13" lengthAdjust="spacing" textLength="153.4355" x="337.3008" y="888.2778">Load shard for partition</text></g><g class="message" data-participant-1="node" data-participant-2="engine"><polygon fill="#181818" points="1078.4497,918.4766,1088.4497,922.4766,1078.4497,926.4766,1082.4497,922.4766" style="stroke:#181818;stroke-width:1;"/><line style="stroke:#181818;stroke-width:1;" x1="330.3008" x2="1084.4497" y1="922.4766" y2="922.4766"/><text fill="#000000" font-family="sans-serif" font-size="13" lengthAdjust="spacing" textLength="262.7104" x="337.3008" y="917.4106">infer_prompt(request_id, shard, prompt)</text></g><g class="message" data-participant-1="engine" data-participant-2="engine"><line style="stroke:#181818;stroke-width:1;" x1="1090.4497" x2="1132.4497" y1="951.6094" y2="951.6094"/><line style="stroke:#181818;stroke-width:1;" x1="1132.4497" x2="1132.4497" y1="951.6094" y2="964.6094"/><line style="stroke:#181818;stroke-width:1;" x1="1091.4497" x2="1132.4497" y1="964.6094" y2="964.6094"/><polygon fill="#181818" points="1101.4497,960.6094,1091.4497,964.6094,1101.4497,968.6094,1097.4497,964.6094" style="stroke:#181818;stroke-width:1;"/><text fill="#000000" font-family="sans-serif" font-size="13" lengthAdjust="spacing" textLength="136.2651" x="1097.4497" y="946.5435">Process shard locally</text></g><g class="message" data-participant-1="engine" data-participant-2="node"><polygon fill="#181818" points="341.3008,989.7422,331.3008,993.7422,341.3008,997.7422,337.3008,993.7422" style="stroke:#181818;stroke-width:1;"/><line style="stroke:#181818;stroke-width:1;" x1="335.3008" x2="1089.4497" y1="993.7422" y2="993.7422"/><text fill="#000000" font-family="sans-serif" font-size="13" lengthAdjust="spacing" textLength="179.9307" x="347.3008" y="988.6763">Return intermediate results</text></g><g class="message" data-participant-1="node" data-participant-2="peers"><polygon fill="#181818" points="1708.2905,1018.875,1718.2905,1022.875,1708.2905,1026.875,1712.2905,1022.875" style="stroke:#181818;stroke-width:1;"/><line style="stroke:#181818;stroke-width:1;" x1="330.3008" x2="1714.2905" y1="1022.875" y2="1022.875"/><text fill="#000000" font-family="sans-serif" font-size="13" lengthAdjust="spacing" textLength="201.2905" x="337.3008" y="1017.8091">send_tensor(peer, shard, data)</text></g><g class="message" data-participant-1="peers" data-participant-2="node"><polygon fill="#181818" points="341.3008,1048.0078,331.3008,1052.0078,341.3008,1056.0078,337.3008,1052.0078" style="stroke:#181818;stroke-width:1;"/><line style="stroke:#181818;stroke-width:1;stroke-dasharray:2,2;" x1="335.3008" x2="1719.2905" y1="1052.0078" y2="1052.0078"/><text fill="#000000" font-family="sans-serif" font-size="13" lengthAdjust="spacing" textLength="162.5444" x="347.3008" y="1046.9419">Return processed results</text></g><g class="message" data-participant-1="node" data-participant-2="viz"><polygon fill="#181818" points="1508.9961,1077.1406,1518.9961,1081.1406,1508.9961,1085.1406,1512.9961,1081.1406" style="stroke:#181818;stroke-width:1;"/><line style="stroke:#181818;stroke-width:1;" x1="330.3008" x2="1514.9961" y1="1081.1406" y2="1081.1406"/><text fill="#000000" font-family="sans-serif" font-size="13" lengthAdjust="spacing" textLength="193.3115" x="337.3008" y="1076.0747">Update topology visualization</text></g><g class="message" data-participant-1="viz" data-participant-2="User"><polygon fill="#181818" points="34.9551,1106.2734,24.9551,1110.2734,34.9551,1114.2734,30.9551,1110.2734" style="stroke:#181818;stroke-width:1;"/><line style="stroke:#181818;stroke-width:1;stroke-dasharray:2,2;" x1="28.9551" x2="1519.9961" y1="1110.2734" y2="1110.2734"/><text fill="#000000" font-family="sans-serif" font-size="13" lengthAdjust="spacing" textLength="141.9082" x="40.9551" y="1105.2075">Display network state</text></g><g class="message" data-participant-1="engine" data-participant-2="node"><polygon fill="#181818" points="341.3008,1135.4063,331.3008,1139.4063,341.3008,1143.4063,337.3008,1139.4063" style="stroke:#181818;stroke-width:1;"/><line style="stroke:#181818;stroke-width:1;" x1="335.3008" x2="1089.4497" y1="1139.4063" y2="1139.4063"/><text fill="#000000" font-family="sans-serif" font-size="13" lengthAdjust="spacing" textLength="116.873" x="347.3008" y="1134.3403">on_token callback</text></g><g class="message" data-participant-1="discovery" data-participant-2="node"><polygon fill="#181818" points="341.3008,1164.5391,331.3008,1168.5391,341.3008,1172.5391,337.3008,1168.5391" style="stroke:#181818;stroke-width:1;"/><line style="stroke:#181818;stroke-width:1;" x1="335.3008" x2="796.1489" y1="1168.5391" y2="1168.5391"/><text fill="#000000" font-family="sans-serif" font-size="13" lengthAdjust="spacing" textLength="178.6167" x="347.3008" y="1163.4731">on_peer_discovery callback</text></g><g class="message" data-participant-1="server" data-participant-2="node"><polygon fill="#181818" points="341.3008,1193.6719,331.3008,1197.6719,341.3008,1201.6719,337.3008,1197.6719" style="stroke:#181818;stroke-width:1;"/><line style="stroke:#181818;stroke-width:1;" x1="335.3008" x2="945.6191" y1="1197.6719" y2="1197.6719"/><text fill="#000000" font-family="sans-serif" font-size="13" lengthAdjust="spacing" textLength="129.7588" x="347.3008" y="1192.606">on_request callback</text></g><path d="M335,1210.6719 L335,1250.6719 L558,1250.6719 L558,1220.6719 L548,1210.6719 L335,1210.6719" fill="#FEFFDD" style="stroke:#181818;stroke-width:0.5;"/><path d="M548,1210.6719 L548,1220.6719 L558,1220.6719 L548,1210.6719" fill="#FEFFDD" style="stroke:#181818;stroke-width:0.5;"/><text fill="#000000" font-family="sans-serif" font-size="13" lengthAdjust="spacing" textLength="162.2588" x="341" y="1227.7388">Central orchestrator that</text><text fill="#000000" font-family="sans-serif" font-size="13" lengthAdjust="spacing" textLength="202.395" x="341" y="1242.8716">manages all other components</text><path d="M613,1260.9375 L613,1315.9375 L790,1315.9375 L790,1270.9375 L780,1260.9375 L613,1260.9375" fill="#FEFFDD" style="stroke:#181818;stroke-width:0.5;"/><path d="M780,1260.9375 L780,1270.9375 L790,1270.9375 L780,1260.9375" fill="#FEFFDD" style="stroke:#181818;stroke-width:0.5;"/><text fill="#000000" font-family="sans-serif" font-size="13" lengthAdjust="spacing" textLength="156.7109" x="619" y="1278.0044">Maintains network state</text><text fill="#000000" font-family="sans-serif" font-size="13" lengthAdjust="spacing" textLength="150.4648" x="619" y="1293.1372">including all nodes and</text><text fill="#000000" font-family="sans-serif" font-size="13" lengthAdjust="spacing" textLength="112.125" x="619" y="1308.27">peer connections</text><path d="M802,1326.3359 L802,1381.3359 L975,1381.3359 L975,1336.3359 L965,1326.3359 L802,1326.3359" fill="#FEFFDD" style="stroke:#181818;stroke-width:0.5;"/><path d="M965,1326.3359 L965,1336.3359 L975,1336.3359 L965,1326.3359" fill="#FEFFDD" style="stroke:#181818;stroke-width:0.5;"/><text fill="#000000" font-family="sans-serif" font-size="13" lengthAdjust="spacing" textLength="152.9404" x="808" y="1343.4028">Handles peer discovery</text><text fill="#000000" font-family="sans-serif" font-size="13" lengthAdjust="spacing" textLength="137.2236" x="808" y="1358.5356">via UDP, Tailscale, or</text><text fill="#000000" font-family="sans-serif" font-size="13" lengthAdjust="spacing" textLength="139.0518" x="808" y="1373.6685">manual configuration</text><path d="M1095,1391.7344 L1095,1446.7344 L1283,1446.7344 L1283,1401.7344 L1273,1391.7344 L1095,1391.7344" fill="#FEFFDD" style="stroke:#181818;stroke-width:0.5;"/><path d="M1273,1391.7344 L1273,1401.7344 L1283,1401.7344 L1273,1391.7344" fill="#FEFFDD" style="stroke:#181818;stroke-width:0.5;"/><text fill="#000000" font-family="sans-serif" font-size="13" lengthAdjust="spacing" textLength="167.9399" x="1101" y="1408.8013">Performs actual inference</text><text fill="#000000" font-family="sans-serif" font-size="13" lengthAdjust="spacing" textLength="147.2974" x="1101" y="1423.9341">using MLX or TinyGrad</text><text fill="#000000" font-family="sans-serif" font-size="13" lengthAdjust="spacing" textLength="55.3833" x="1101" y="1439.0669">backend</text><g class="message" data-participant-1="node" data-participant-2="topology"><polygon fill="#181818" points="596.2432,1469.2656,606.2432,1473.2656,596.2432,1477.2656,600.2432,1473.2656" style="stroke:#181818;stroke-width:1;"/><line style="stroke:#181818;stroke-width:1;stroke-dasharray:2,2;" x1="330.3008" x2="602.2432" y1="1473.2656" y2="1473.2656"/><text fill="#000000" font-family="sans-serif" font-size="13" lengthAdjust="spacing" textLength="153.8481" x="337.3008" y="1468.1997">manages network state</text></g><g class="message" data-participant-1="node" data-participant-2="discovery"><polygon fill="#181818" points="785.1489,1498.3984,795.1489,1502.3984,785.1489,1506.3984,789.1489,1502.3984" style="stroke:#181818;stroke-width:1;"/><line style="stroke:#181818;stroke-width:1;stroke-dasharray:2,2;" x1="330.3008" x2="791.1489" y1="1502.3984" y2="1502.3984"/><text fill="#000000" font-family="sans-serif" font-size="13" lengthAdjust="spacing" textLength="152.1152" x="337.3008" y="1497.3325">uses for peer discovery</text></g><g class="message" data-participant-1="node" data-participant-2="server"><polygon fill="#181818" points="934.6191,1527.5313,944.6191,1531.5313,934.6191,1535.5313,938.6191,1531.5313" style="stroke:#181818;stroke-width:1;"/><line style="stroke:#181818;stroke-width:1;stroke-dasharray:2,2;" x1="330.3008" x2="940.6191" y1="1531.5313" y2="1531.5313"/><text fill="#000000" font-family="sans-serif" font-size="13" lengthAdjust="spacing" textLength="174.916" x="337.3008" y="1526.4653">provides network interface</text></g><g class="message" data-participant-1="node" data-participant-2="engine"><polygon fill="#181818" points="1078.4497,1556.6641,1088.4497,1560.6641,1078.4497,1564.6641,1082.4497,1560.6641" style="stroke:#181818;stroke-width:1;"/><line style="stroke:#181818;stroke-width:1;stroke-dasharray:2,2;" x1="330.3008" x2="1084.4497" y1="1560.6641" y2="1560.6641"/><text fill="#000000" font-family="sans-serif" font-size="13" lengthAdjust="spacing" textLength="117.0762" x="337.3008" y="1555.5981">uses for inference</text></g><g class="message" data-participant-1="node" data-participant-2="downloader"><polygon fill="#181818" points="1251.0166,1585.7969,1261.0166,1589.7969,1251.0166,1593.7969,1255.0166,1589.7969" style="stroke:#181818;stroke-width:1;"/><line style="stroke:#181818;stroke-width:1;stroke-dasharray:2,2;" x1="330.3008" x2="1257.0166" y1="1589.7969" y2="1589.7969"/><text fill="#000000" font-family="sans-serif" font-size="13" lengthAdjust="spacing" textLength="151.9502" x="337.3008" y="1584.731">manages model shards</text></g><g class="message" data-participant-1="node" data-participant-2="viz"><polygon fill="#181818" points="1508.9961,1614.9297,1518.9961,1618.9297,1508.9961,1622.9297,1512.9961,1618.9297" style="stroke:#181818;stroke-width:1;"/><line style="stroke:#181818;stroke-width:1;stroke-dasharray:2,2;" x1="330.3008" x2="1514.9961" y1="1618.9297" y2="1618.9297"/><text fill="#000000" font-family="sans-serif" font-size="13" lengthAdjust="spacing" textLength="137.9092" x="337.3008" y="1613.8638">updates visualization</text></g><g class="message" data-participant-1="discovery" data-participant-2="topology"><polygon fill="#181818" points="619.2432,1644.0625,609.2432,1648.0625,619.2432,1652.0625,615.2432,1648.0625" style="stroke:#181818;stroke-width:1;"/><line style="stroke:#181818;stroke-width:1;stroke-dasharray:2,2;" x1="613.2432" x2="796.1489" y1="1648.0625" y2="1648.0625"/><text fill="#000000" font-family="sans-serif" font-size="13" lengthAdjust="spacing" textLength="146.5674" x="625.2432" y="1642.9966">updates network state</text></g><g class="message" data-participant-1="engine" data-participant-2="downloader"><polygon fill="#181818" points="1251.0166,1673.1953,1261.0166,1677.1953,1251.0166,1681.1953,1255.0166,1677.1953" style="stroke:#181818;stroke-width:1;"/><line style="stroke:#181818;stroke-width:1;stroke-dasharray:2,2;" x1="1090.4497" x2="1257.0166" y1="1677.1953" y2="1677.1953"/><text fill="#000000" font-family="sans-serif" font-size="13" lengthAdjust="spacing" textLength="148.5669" x="1097.4497" y="1672.1294">requests model shards</text></g><g class="message" data-participant-1="api" data-participant-2="node"><polygon fill="#181818" points="341.3008,1702.3281,331.3008,1706.3281,341.3008,1710.3281,337.3008,1706.3281" style="stroke:#181818;stroke-width:1;"/><line style="stroke:#181818;stroke-width:1;stroke-dasharray:2,2;" x1="335.3008" x2="1400.0571" y1="1706.3281" y2="1706.3281"/><text fill="#000000" font-family="sans-serif" font-size="13" lengthAdjust="spacing" textLength="138.4233" x="347.3008" y="1701.2622">delegates processing</text></g><!--SRC=[TLPDJoCv43rF_melXoL84BHVbpsiD0fP5YqmKGYZFI15fhkIU77iNjiT9lpwhRBTThjX3WYb_UhplIhxXmOsGW5RpcUhp_VNjtDMIsvjLJdX9B3vDyrcsW3xylmlr8xTA0U6rqvenVwK-hMgJjaT5uez7As3VOJP2Y7Qi4SBfcgvSQ8MBLUEdUmHEssFJsgkd3coXHRAdJ1k6HsKq7lTm9FwOkeTM6Su-lD0XPzBu4gtMkejEhq7zwhD2tjmt857ktXMMbm9M-i363Hv07CGDR3qoPir_Q_Ixdgvc941c1pBTsJ3wn3F-jFIwaPjm82gOQwssEedDRcx_UTo9TJnsl3cpDk1Fohj7dRSD5VwLKdD6mfvXwLBRBVYMmZDQD9fQJhRSNUzM7rUt3ofvVnXDSgIj-BZ5duLRq_ggx0Tb-AD4yiUVn1lHFJy6pfHNB8bMDsP6cpLSCUVkGLsufF3QD1gAv2iqCWzVRLbi0M0OSIkzP0MVrfoJtf27lZMy7r5qc4NVtXTiD-9KUCmxrQAskT52XC7f3aenyCGJkf0-Cm07L4G9fHr7BkVBRo4aadkOJOSjRxoRX7RomcHDqeuGMq2rdSlmP9yIbpI69iyNYqkLrn8MtC9bqWfTlmisGSLbSPPUmaMH5F2Hc9BMAJmuwIHSZRHBVMKKiXj6TGGkf-78fyXqFE7eBuw_y7t67dtPnSZTqjmdL41j-EgaIIaeSj1cn_RnbCMfotDSyepzIea6GSmVisAMC9Mu8OAYNcK8FqcDpWIcVuyFXLz_y3Bgt2xgADJl-RURKOlwP-cB0pjBUf8g6tOcRssGymb_DVXXWkZWcgD_8qYjqPZldQD__UjcrWIw3aBlx9m2Ys3ifs1jOS6WxDg0A3XyjD9tCNFCGaFjbKylXWxZlm5x4Pu-WP-X-toGAbHvQpbRaSz-NdA5hGEg5Ef9HyCs3KuLdS6c-4I_POMUvL0xqDvsR4VMSrR_Yma1i7aUkVzSk2oxYJntFPvM4PBh678tHxskBpUpnWn61h3DdYr9LCgwPSfgTyPyTmvz99ciAmjkV8SzqoQGFzQ89qZLgF1q7GHP10JyOsLnm6mx8OWJUwX4LIi0Tj9l9fJFltWMb3Dsg5Qj9dGjvG7BVUpmGoNpgCYiTxa-PJzElMNRsVZuDhH0ehZd1Wy3E-QYZ0Ko0-8toYjvCSH-nZbjocHA9zv_H8V7kzReDNQwHTGh8x8SiLa5DMtpcS9_cw583QIbK6OJ7mPtOeDrCTQqgqJwgQUY-tECRq9g-BJ3BLiS1Jqu57372wRwjFUt-fuDKiyTZiCNAC8j48BYyKrZFnL8wzf6z8JpE6V7VLAg5fsVl6Gtp0Sk70zfnX0AV0Bw_iHyix_AopgiBNpvuFW32-pSvPkitCi3zSgtMWKOYEsdGdqVYz8VFmiy8MYpHuph1qPvrNOMIe1NqteclKFfue8G9S3jwViRpZsX2n1-h1s9zfUXkM6wNjUzYmXXrTMPn7dvxuiFu7JDOHZSH3DmAledruPdCOvkSsrvl33bTkdMkpd10sprOM96ytKKFPb-Js-BByVf746KVgZ5FmbbKS4Js3hdSRjWBpz3m00]--></g></svg>