<svg xmlns="http://www.w3.org/2000/svg" xmlns:xlink="http://www.w3.org/1999/xlink" contentStyleType="text/css" data-diagram-type="SEQUENCE" height="952px" preserveAspectRatio="none" style="width:1456px;height:952px;background:#FFFFFF;" version="1.1" viewBox="0 0 1456 952" width="1456px" zoomAndPan="magnify"><defs/><g><g><title>ChatGPT API</title><rect fill="#FFFFFF" height="656.5938" style="stroke:#181818;stroke-width:1;" width="10" x="218.2075" y="112.4297"/></g><g><title>Node</title><rect fill="#FFFFFF" height="598.3281" style="stroke:#181818;stroke-width:1;" width="10" x="454.0586" y="141.5625"/></g><g><title>Peer Nodes</title><rect fill="#FFFFFF" height="71.2656" style="stroke:#181818;stroke-width:1;" width="10" x="1204.1514" y="583.3594"/></g><rect fill="none" height="221.7344" style="stroke:#000000;stroke-width:1.5;" width="979.3975" x="413.7896" y="447.8906"/><rect fill="none" height="190.6016" style="stroke:#000000;stroke-width:1.5;" width="959.3975" x="423.7896" y="472.0234"/><g><title>User</title><rect fill="#000000" fill-opacity="0.00000" height="789.9922" width="8" x="19.9551" y="81.2969"/><line style="stroke:#181818;stroke-width:0.5;stroke-dasharray:5,5;" x1="23" x2="23" y1="81.2969" y2="871.2891"/></g><g><title>ChatGPT API</title><rect fill="#000000" fill-opacity="0.00000" height="789.9922" width="8" x="219.2075" y="81.2969"/><line style="stroke:#181818;stroke-width:0.5;stroke-dasharray:5,5;" x1="222.6284" x2="222.6284" y1="81.2969" y2="871.2891"/></g><g><title>Node</title><rect fill="#000000" fill-opacity="0.00000" height="789.9922" width="8" x="455.0586" y="81.2969"/><line style="stroke:#181818;stroke-width:0.5;stroke-dasharray:5,5;" x1="458.7896" x2="458.7896" y1="81.2969" y2="871.2891"/></g><g><title>Topology</title><rect fill="#000000" fill-opacity="0.00000" height="789.9922" width="8" x="644.2222" y="81.2969"/><line style="stroke:#181818;stroke-width:0.5;stroke-dasharray:5,5;" x1="648.124" x2="648.124" y1="81.2969" y2="871.2891"/></g><g><title>Partitioning Strategy</title><rect fill="#000000" fill-opacity="0.00000" height="789.9922" width="8" x="772.8496" y="81.2969"/><line style="stroke:#181818;stroke-width:0.5;stroke-dasharray:5,5;" x1="776.3203" x2="776.3203" y1="81.2969" y2="871.2891"/></g><g><title>Inference Engine</title><rect fill="#000000" fill-opacity="0.00000" height="789.9922" width="8" x="928.6431" y="81.2969"/><line style="stroke:#181818;stroke-width:0.5;stroke-dasharray:5,5;" x1="932.3789" x2="932.3789" y1="81.2969" y2="871.2891"/></g><g><title>Shard Downloader</title><rect fill="#000000" fill-opacity="0.00000" height="789.9922" width="8" x="1076.6025" y="81.2969"/><line style="stroke:#181818;stroke-width:0.5;stroke-dasharray:5,5;" x1="1079.9072" x2="1079.9072" y1="81.2969" y2="871.2891"/></g><g><title>Peer Nodes</title><rect fill="#000000" fill-opacity="0.00000" height="789.9922" width="8" x="1205.1514" y="81.2969"/><line style="stroke:#181818;stroke-width:0.5;stroke-dasharray:5,5;" x1="1208.2979" x2="1208.2979" y1="81.2969" y2="871.2891"/></g><g><title>Model Repository</title><rect fill="#000000" fill-opacity="0.00000" height="789.9922" width="8" x="1379.187" y="81.2969"/><line style="stroke:#181818;stroke-width:0.5;stroke-dasharray:5,5;" x1="1382.4087" x2="1382.4087" y1="81.2969" y2="871.2891"/></g><g class="participant participant-head" data-participant="User"><text fill="#000000" font-family="sans-serif" font-size="14" lengthAdjust="spacing" textLength="31.9102" x="5" y="77.9951">User</text><ellipse cx="23.9551" cy="13.5" fill="#E2E2F0" rx="8" ry="8" style="stroke:#181818;stroke-width:0.5;"/><path d="M23.9551,21.5 L23.9551,48.5 M10.9551,29.5 L36.9551,29.5 M23.9551,48.5 L10.9551,63.5 M23.9551,48.5 L36.9551,63.5" fill="none" style="stroke:#181818;stroke-width:0.5;"/></g><g class="participant participant-tail" data-participant="User"><text fill="#000000" font-family="sans-serif" font-size="14" lengthAdjust="spacing" textLength="31.9102" x="5" y="883.2842">User</text><ellipse cx="23.9551" cy="895.0859" fill="#E2E2F0" rx="8" ry="8" style="stroke:#181818;stroke-width:0.5;"/><path d="M23.9551,903.0859 L23.9551,930.0859 M10.9551,911.0859 L36.9551,911.0859 M23.9551,930.0859 L10.9551,945.0859 M23.9551,930.0859 L36.9551,945.0859" fill="none" style="stroke:#181818;stroke-width:0.5;"/></g><g class="participant participant-head" data-participant="api"><rect fill="#E2E2F0" height="30.2969" rx="2.5" ry="2.5" style="stroke:#181818;stroke-width:0.5;" width="101.1582" x="172.6284" y="50"/><text fill="#000000" font-family="sans-serif" font-size="14" lengthAdjust="spacing" textLength="87.1582" x="179.6284" y="69.9951">ChatGPT API</text></g><g class="participant participant-tail" data-participant="api"><rect fill="#E2E2F0" height="30.2969" rx="2.5" ry="2.5" style="stroke:#181818;stroke-width:0.5;" width="101.1582" x="172.6284" y="870.2891"/><text fill="#000000" font-family="sans-serif" font-size="14" lengthAdjust="spacing" textLength="87.1582" x="179.6284" y="890.2842">ChatGPT API</text></g><g class="participant participant-head" data-participant="node"><rect fill="#E2E2F0" height="30.2969" rx="2.5" ry="2.5" style="stroke:#181818;stroke-width:0.5;" width="50.5381" x="433.7896" y="50"/><text fill="#000000" font-family="sans-serif" font-size="14" lengthAdjust="spacing" textLength="36.5381" x="440.7896" y="69.9951">Node</text></g><g class="participant participant-tail" data-participant="node"><rect fill="#E2E2F0" height="30.2969" rx="2.5" ry="2.5" style="stroke:#181818;stroke-width:0.5;" width="50.5381" x="433.7896" y="870.2891"/><text fill="#000000" font-family="sans-serif" font-size="14" lengthAdjust="spacing" textLength="36.5381" x="440.7896" y="890.2842">Node</text></g><g class="participant participant-head" data-participant="topology"><rect fill="#E2E2F0" height="30.2969" rx="2.5" ry="2.5" style="stroke:#181818;stroke-width:0.5;" width="78.1963" x="609.124" y="50"/><text fill="#000000" font-family="sans-serif" font-size="14" lengthAdjust="spacing" textLength="64.1963" x="616.124" y="69.9951">Topology</text></g><g class="participant participant-tail" data-participant="topology"><rect fill="#E2E2F0" height="30.2969" rx="2.5" ry="2.5" style="stroke:#181818;stroke-width:0.5;" width="78.1963" x="609.124" y="870.2891"/><text fill="#000000" font-family="sans-serif" font-size="14" lengthAdjust="spacing" textLength="64.1963" x="616.124" y="890.2842">Topology</text></g><g class="participant participant-head" data-participant="strategy"><rect fill="#E2E2F0" height="30.2969" rx="2.5" ry="2.5" style="stroke:#181818;stroke-width:0.5;" width="159.0586" x="697.3203" y="50"/><text fill="#000000" font-family="sans-serif" font-size="14" lengthAdjust="spacing" textLength="145.0586" x="704.3203" y="69.9951">Partitioning Strategy</text></g><g class="participant participant-tail" data-participant="strategy"><rect fill="#E2E2F0" height="30.2969" rx="2.5" ry="2.5" style="stroke:#181818;stroke-width:0.5;" width="159.0586" x="697.3203" y="870.2891"/><text fill="#000000" font-family="sans-serif" font-size="14" lengthAdjust="spacing" textLength="145.0586" x="704.3203" y="890.2842">Partitioning Strategy</text></g><g class="participant participant-head" data-participant="engine"><rect fill="#E2E2F0" height="30.2969" rx="2.5" ry="2.5" style="stroke:#181818;stroke-width:0.5;" width="132.5283" x="866.3789" y="50"/><text fill="#000000" font-family="sans-serif" font-size="14" lengthAdjust="spacing" textLength="118.5283" x="873.3789" y="69.9951">Inference Engine</text></g><g class="participant participant-tail" data-participant="engine"><rect fill="#E2E2F0" height="30.2969" rx="2.5" ry="2.5" style="stroke:#181818;stroke-width:0.5;" width="132.5283" x="866.3789" y="870.2891"/><text fill="#000000" font-family="sans-serif" font-size="14" lengthAdjust="spacing" textLength="118.5283" x="873.3789" y="890.2842">Inference Engine</text></g><g class="participant participant-head" data-participant="downloader"><rect fill="#E2E2F0" height="30.2969" rx="2.5" ry="2.5" style="stroke:#181818;stroke-width:0.5;" width="143.3906" x="1008.9072" y="50"/><text fill="#000000" font-family="sans-serif" font-size="14" lengthAdjust="spacing" textLength="129.3906" x="1015.9072" y="69.9951">Shard Downloader</text></g><g class="participant participant-tail" data-participant="downloader"><rect fill="#E2E2F0" height="30.2969" rx="2.5" ry="2.5" style="stroke:#181818;stroke-width:0.5;" width="143.3906" x="1008.9072" y="870.2891"/><text fill="#000000" font-family="sans-serif" font-size="14" lengthAdjust="spacing" textLength="129.3906" x="1015.9072" y="890.2842">Shard Downloader</text></g><g class="participant participant-head" data-participant="peers"><rect fill="#E2E2F0" height="30.2969" rx="2.5" ry="2.5" style="stroke:#181818;stroke-width:0.5;" width="93.707" x="1162.2979" y="50"/><text fill="#000000" font-family="sans-serif" font-size="14" lengthAdjust="spacing" textLength="79.707" x="1169.2979" y="69.9951">Peer Nodes</text></g><g class="participant participant-tail" data-participant="peers"><rect fill="#E2E2F0" height="30.2969" rx="2.5" ry="2.5" style="stroke:#181818;stroke-width:0.5;" width="93.707" x="1162.2979" y="870.2891"/><text fill="#000000" font-family="sans-serif" font-size="14" lengthAdjust="spacing" textLength="79.707" x="1169.2979" y="890.2842">Peer Nodes</text></g><g class="participant participant-head" data-participant="repo"><rect fill="#E2E2F0" height="30.2969" rx="2.5" ry="2.5" style="stroke:#181818;stroke-width:0.5;" width="135.5566" x="1315.4087" y="50"/><text fill="#000000" font-family="sans-serif" font-size="14" lengthAdjust="spacing" textLength="121.5566" x="1322.4087" y="69.9951">Model Repository</text></g><g class="participant participant-tail" data-participant="repo"><rect fill="#E2E2F0" height="30.2969" rx="2.5" ry="2.5" style="stroke:#181818;stroke-width:0.5;" width="135.5566" x="1315.4087" y="870.2891"/><text fill="#000000" font-family="sans-serif" font-size="14" lengthAdjust="spacing" textLength="121.5566" x="1322.4087" y="890.2842">Model Repository</text></g><g><title>ChatGPT API</title><rect fill="#FFFFFF" height="656.5938" style="stroke:#181818;stroke-width:1;" width="10" x="218.2075" y="112.4297"/></g><g><title>Node</title><rect fill="#FFFFFF" height="598.3281" style="stroke:#181818;stroke-width:1;" width="10" x="454.0586" y="141.5625"/></g><g><title>Peer Nodes</title><rect fill="#FFFFFF" height="71.2656" style="stroke:#181818;stroke-width:1;" width="10" x="1204.1514" y="583.3594"/></g><g class="message" data-participant-1="User" data-participant-2="api"><polygon fill="#181818" points="206.2075,108.4297,216.2075,112.4297,206.2075,116.4297,210.2075,112.4297" style="stroke:#181818;stroke-width:1;"/><line style="stroke:#181818;stroke-width:1;" x1="23.9551" x2="212.2075" y1="112.4297" y2="112.4297"/><text fill="#000000" font-family="sans-serif" font-size="13" lengthAdjust="spacing" textLength="175.2524" x="30.9551" y="107.3638">POST /v1/chat/completions</text></g><g class="message" data-participant-1="api" data-participant-2="node"><polygon fill="#181818" points="442.0586,137.5625,452.0586,141.5625,442.0586,145.5625,446.0586,141.5625" style="stroke:#181818;stroke-width:1;"/><line style="stroke:#181818;stroke-width:1;" x1="228.2075" x2="448.0586" y1="141.5625" y2="141.5625"/><text fill="#000000" font-family="sans-serif" font-size="13" lengthAdjust="spacing" textLength="206.8511" x="235.2075" y="136.4966">process_prompt(shard, prompt)</text></g><g class="message" data-participant-1="node" data-participant-2="topology"><polygon fill="#181818" points="636.2222,166.6953,646.2222,170.6953,636.2222,174.6953,640.2222,170.6953" style="stroke:#181818;stroke-width:1;"/><line style="stroke:#181818;stroke-width:1;" x1="464.0586" x2="642.2222" y1="170.6953" y2="170.6953"/><text fill="#000000" font-family="sans-serif" font-size="13" lengthAdjust="spacing" textLength="148.6685" x="471.0586" y="165.6294">get_current_topology()</text></g><g class="message" data-participant-1="topology" data-participant-2="node"><polygon fill="#181818" points="475.0586,195.8281,465.0586,199.8281,475.0586,203.8281,471.0586,199.8281" style="stroke:#181818;stroke-width:1;"/><line style="stroke:#181818;stroke-width:1;stroke-dasharray:2,2;" x1="469.0586" x2="647.2222" y1="199.8281" y2="199.8281"/><text fill="#000000" font-family="sans-serif" font-size="13" lengthAdjust="spacing" textLength="131.5171" x="481.0586" y="194.7622">nodes &amp; capabilities</text></g><g class="message" data-participant-1="node" data-participant-2="strategy"><polygon fill="#181818" points="764.8496,224.9609,774.8496,228.9609,764.8496,232.9609,768.8496,228.9609" style="stroke:#181818;stroke-width:1;"/><line style="stroke:#181818;stroke-width:1;" x1="464.0586" x2="770.8496" y1="228.9609" y2="228.9609"/><text fill="#000000" font-family="sans-serif" font-size="13" lengthAdjust="spacing" textLength="122.0845" x="471.0586" y="223.895">partition(topology)</text></g><g class="message" data-participant-1="strategy" data-participant-2="node"><polygon fill="#181818" points="475.0586,254.0938,465.0586,258.0938,475.0586,262.0938,471.0586,258.0938" style="stroke:#181818;stroke-width:1;"/><line style="stroke:#181818;stroke-width:1;stroke-dasharray:2,2;" x1="469.0586" x2="775.8496" y1="258.0938" y2="258.0938"/><text fill="#000000" font-family="sans-serif" font-size="13" lengthAdjust="spacing" textLength="99.271" x="481.0586" y="253.0278">List&lt;Partition&gt;</text></g><g class="message" data-participant-1="node" data-participant-2="downloader"><polygon fill="#181818" points="1068.6025,283.2266,1078.6025,287.2266,1068.6025,291.2266,1072.6025,287.2266" style="stroke:#181818;stroke-width:1;"/><line style="stroke:#181818;stroke-width:1;" x1="464.0586" x2="1074.6025" y1="287.2266" y2="287.2266"/><text fill="#000000" font-family="sans-serif" font-size="13" lengthAdjust="spacing" textLength="134.3862" x="471.0586" y="282.1606">ensure_shard(shard)</text></g><g class="message" data-participant-1="downloader" data-participant-2="repo"><polygon fill="#181818" points="1371.187,312.3594,1381.187,316.3594,1371.187,320.3594,1375.187,316.3594" style="stroke:#181818;stroke-width:1;"/><line style="stroke:#181818;stroke-width:1;" x1="1080.6025" x2="1377.187" y1="316.3594" y2="316.3594"/><text fill="#000000" font-family="sans-serif" font-size="13" lengthAdjust="spacing" textLength="149.938" x="1087.6025" y="311.2935">Download model shard</text></g><g class="message" data-participant-1="repo" data-participant-2="downloader"><polygon fill="#181818" points="1091.6025,341.4922,1081.6025,345.4922,1091.6025,349.4922,1087.6025,345.4922" style="stroke:#181818;stroke-width:1;"/><line style="stroke:#181818;stroke-width:1;stroke-dasharray:2,2;" x1="1085.6025" x2="1382.187" y1="345.4922" y2="345.4922"/><text fill="#000000" font-family="sans-serif" font-size="13" lengthAdjust="spacing" textLength="69.7354" x="1097.6025" y="340.4263">Model files</text></g><g class="message" data-participant-1="downloader" data-participant-2="node"><polygon fill="#181818" points="475.0586,370.625,465.0586,374.625,475.0586,378.625,471.0586,374.625" style="stroke:#181818;stroke-width:1;"/><line style="stroke:#181818;stroke-width:1;stroke-dasharray:2,2;" x1="469.0586" x2="1079.6025" y1="374.625" y2="374.625"/><text fill="#000000" font-family="sans-serif" font-size="13" lengthAdjust="spacing" textLength="112.2202" x="481.0586" y="369.5591">Local model path</text></g><g class="message" data-participant-1="node" data-participant-2="engine"><polygon fill="#181818" points="920.6431,399.7578,930.6431,403.7578,920.6431,407.7578,924.6431,403.7578" style="stroke:#181818;stroke-width:1;"/><line style="stroke:#181818;stroke-width:1;" x1="464.0586" x2="926.6431" y1="403.7578" y2="403.7578"/><text fill="#000000" font-family="sans-serif" font-size="13" lengthAdjust="spacing" textLength="127.9814" x="471.0586" y="398.6919">load_model_shard()</text></g><g class="message" data-participant-1="node" data-participant-2="engine"><polygon fill="#181818" points="920.6431,428.8906,930.6431,432.8906,920.6431,436.8906,924.6431,432.8906" style="stroke:#181818;stroke-width:1;"/><line style="stroke:#181818;stroke-width:1;" x1="464.0586" x2="926.6431" y1="432.8906" y2="432.8906"/><text fill="#000000" font-family="sans-serif" font-size="13" lengthAdjust="spacing" textLength="262.7104" x="471.0586" y="427.8247">infer_prompt(request_id, shard, prompt)</text></g><path d="M413.7896,447.8906 L490.4136,447.8906 L490.4136,455.0234 L480.4136,465.0234 L413.7896,465.0234 L413.7896,447.8906" fill="#EEEEEE" style="stroke:#000000;stroke-width:1.5;"/><rect fill="none" height="221.7344" style="stroke:#000000;stroke-width:1.5;" width="979.3975" x="413.7896" y="447.8906"/><text fill="#000000" font-family="sans-serif" font-size="13" font-weight="bold" lengthAdjust="spacing" textLength="31.624" x="428.7896" y="460.9575">loop</text><text fill="#000000" font-family="sans-serif" font-size="11" font-weight="bold" lengthAdjust="spacing" textLength="121.6123" x="505.4136" y="460.1011">[For each partition]</text><path d="M423.7896,472.0234 L488.2324,472.0234 L488.2324,479.1563 L478.2324,489.1563 L423.7896,489.1563 L423.7896,472.0234" fill="#EEEEEE" style="stroke:#000000;stroke-width:1.5;"/><rect fill="none" height="190.6016" style="stroke:#000000;stroke-width:1.5;" width="959.3975" x="423.7896" y="472.0234"/><text fill="#000000" font-family="sans-serif" font-size="13" font-weight="bold" lengthAdjust="spacing" textLength="19.4429" x="438.7896" y="485.0903">alt</text><text fill="#000000" font-family="sans-serif" font-size="11" font-weight="bold" lengthAdjust="spacing" textLength="100.332" x="503.2324" y="484.2339">[Local partition]</text><g class="message" data-participant-1="node" data-participant-2="engine"><polygon fill="#181818" points="920.6431,506.2891,930.6431,510.2891,920.6431,514.2891,924.6431,510.2891" style="stroke:#181818;stroke-width:1;"/><line style="stroke:#181818;stroke-width:1;" x1="464.0586" x2="926.6431" y1="510.2891" y2="510.2891"/><text fill="#000000" font-family="sans-serif" font-size="13" lengthAdjust="spacing" textLength="140.0356" x="471.0586" y="505.2231">process_shard(shard)</text></g><g class="message" data-participant-1="engine" data-participant-2="node"><polygon fill="#181818" points="475.0586,535.4219,465.0586,539.4219,475.0586,543.4219,471.0586,539.4219" style="stroke:#181818;stroke-width:1;"/><line style="stroke:#181818;stroke-width:1;stroke-dasharray:2,2;" x1="469.0586" x2="931.6431" y1="539.4219" y2="539.4219"/><text fill="#000000" font-family="sans-serif" font-size="13" lengthAdjust="spacing" textLength="127.4419" x="481.0586" y="534.356">intermediate_result</text></g><line style="stroke:#000000;stroke-width:1;stroke-dasharray:2,2;" x1="423.7896" x2="1383.187" y1="548.4219" y2="548.4219"/><text fill="#000000" font-family="sans-serif" font-size="11" font-weight="bold" lengthAdjust="spacing" textLength="115.7202" x="428.7896" y="558.6323">[Remote partition]</text><g class="message" data-participant-1="node" data-participant-2="peers"><polygon fill="#181818" points="1192.1514,579.3594,1202.1514,583.3594,1192.1514,587.3594,1196.1514,583.3594" style="stroke:#181818;stroke-width:1;"/><line style="stroke:#181818;stroke-width:1;" x1="464.0586" x2="1198.1514" y1="583.3594" y2="583.3594"/><text fill="#000000" font-family="sans-serif" font-size="13" lengthAdjust="spacing" textLength="201.2905" x="471.0586" y="578.2935">send_tensor(peer, shard, data)</text></g><g class="message" data-participant-1="peers" data-participant-2="peers"><line style="stroke:#181818;stroke-width:1;" x1="1214.1514" x2="1256.1514" y1="612.4922" y2="612.4922"/><line style="stroke:#181818;stroke-width:1;" x1="1256.1514" x2="1256.1514" y1="612.4922" y2="625.4922"/><line style="stroke:#181818;stroke-width:1;" x1="1215.1514" x2="1256.1514" y1="625.4922" y2="625.4922"/><polygon fill="#181818" points="1225.1514,621.4922,1215.1514,625.4922,1225.1514,629.4922,1221.1514,625.4922" style="stroke:#181818;stroke-width:1;"/><text fill="#000000" font-family="sans-serif" font-size="13" lengthAdjust="spacing" textLength="140.0356" x="1221.1514" y="607.4263">process_shard(shard)</text></g><g class="message" data-participant-1="peers" data-participant-2="node"><polygon fill="#181818" points="475.0586,650.625,465.0586,654.625,475.0586,658.625,471.0586,654.625" style="stroke:#181818;stroke-width:1;"/><line style="stroke:#181818;stroke-width:1;stroke-dasharray:2,2;" x1="469.0586" x2="1208.1514" y1="654.625" y2="654.625"/><text fill="#000000" font-family="sans-serif" font-size="13" lengthAdjust="spacing" textLength="110.0557" x="481.0586" y="649.5591">processed_result</text></g><g class="message" data-participant-1="node" data-participant-2="node"><line style="stroke:#181818;stroke-width:1;" x1="464.0586" x2="506.0586" y1="697.7578" y2="697.7578"/><line style="stroke:#181818;stroke-width:1;" x1="506.0586" x2="506.0586" y1="697.7578" y2="710.7578"/><line style="stroke:#181818;stroke-width:1;" x1="465.0586" x2="506.0586" y1="710.7578" y2="710.7578"/><polygon fill="#181818" points="475.0586,706.7578,465.0586,710.7578,475.0586,714.7578,471.0586,710.7578" style="stroke:#181818;stroke-width:1;"/><text fill="#000000" font-family="sans-serif" font-size="13" lengthAdjust="spacing" textLength="127.6069" x="471.0586" y="692.6919">aggregate_results()</text></g><g class="message" data-participant-1="node" data-participant-2="api"><polygon fill="#181818" points="239.2075,735.8906,229.2075,739.8906,239.2075,743.8906,235.2075,739.8906" style="stroke:#181818;stroke-width:1;"/><line style="stroke:#181818;stroke-width:1;" x1="233.2075" x2="458.0586" y1="739.8906" y2="739.8906"/><text fill="#000000" font-family="sans-serif" font-size="13" lengthAdjust="spacing" textLength="71.5698" x="245.2075" y="734.8247">final_result</text></g><g class="message" data-participant-1="api" data-participant-2="User"><polygon fill="#181818" points="34.9551,765.0234,24.9551,769.0234,34.9551,773.0234,30.9551,769.0234" style="stroke:#181818;stroke-width:1;"/><line style="stroke:#181818;stroke-width:1;stroke-dasharray:2,2;" x1="28.9551" x2="222.2075" y1="769.0234" y2="769.0234"/><text fill="#000000" font-family="sans-serif" font-size="13" lengthAdjust="spacing" textLength="95.5068" x="40.9551" y="763.9575">JSON response</text></g><g class="message" data-participant-1="node" data-participant-2="node"><line style="stroke:#181818;stroke-width:1;" x1="459.0586" x2="501.0586" y1="798.1563" y2="798.1563"/><line style="stroke:#181818;stroke-width:1;" x1="501.0586" x2="501.0586" y1="798.1563" y2="811.1563"/><line style="stroke:#181818;stroke-width:1;" x1="460.0586" x2="501.0586" y1="811.1563" y2="811.1563"/><polygon fill="#181818" points="470.0586,807.1563,460.0586,811.1563,470.0586,815.1563,466.0586,811.1563" style="stroke:#181818;stroke-width:1;"/><text fill="#000000" font-family="sans-serif" font-size="13" lengthAdjust="spacing" textLength="116.873" x="466.0586" y="793.0903">on_token callback</text></g><g class="message" data-participant-1="node" data-participant-2="node"><line style="stroke:#181818;stroke-width:1;" x1="459.0586" x2="501.0586" y1="840.2891" y2="840.2891"/><line style="stroke:#181818;stroke-width:1;" x1="501.0586" x2="501.0586" y1="840.2891" y2="853.2891"/><line style="stroke:#181818;stroke-width:1;" x1="460.0586" x2="501.0586" y1="853.2891" y2="853.2891"/><polygon fill="#181818" points="470.0586,849.2891,460.0586,853.2891,470.0586,857.2891,466.0586,853.2891" style="stroke:#181818;stroke-width:1;"/><text fill="#000000" font-family="sans-serif" font-size="13" lengthAdjust="spacing" textLength="175.1636" x="466.0586" y="835.2231">on_opaque_status callback</text></g><!--SRC=[TLJBRjim4BppAnOvj3PGEqYVG50429gsI94cHfsS1LfQoqHaaYNf1Fdx3ab9bkpqO5WaPuUpixkKPJ2E7ZmxOQKBgbHMwa0dtpOo_5pSq-NY-eIa9sdL671hAaud6X_ZetjZJMFgbtGSsiKOieYBe8nMkgPbS39mY_VjOeo_rcjsh4kcxxfMEj_CwNCCN6wag-ZAFEl6o8fT0bRzya05iwEOY4ymYwKV8txZiA4_R8rNC2fBT5WAyPQk5CIgrIvmHNk1I_wxYnyHSJR70VAKaGFRFeXeDSqkeg5qJekxvJsTFfsTbl3xj3HRst2qnGjP1lK49vBp4OoOQ3M2h3CbUr_WVsl3nCUKtr5UJVU1gJ0GyNvEjnoUZNkaIosR5w-yI4nWxAe3rff3KUuSaWX5jpsPYXunsmk8VvxUK2cjNAa62R8NFMTNmQYqA_EaevcA_dX0U0Cdl_OzSH5LVvXJDly6XKENzFJxOYAGjTyvBf85sOYf6000ZyK2iEi8sYRI11NfR7R8cQzTgmP93Ra6Sas9YcOcAyCcwlquRxVxJkWLvpv5N6GgKbYhU7gCKJ6yAwtBJLCerFUWpBZo4opQDK7D4iaYTqMqgZ76qW_CDSjoio-2899DQ6KETucEP7GzDd8s8bl4m0sb0xijLmfbBHnxI0AI6yze-gr19xv-Lnetn7lMLH5GIUCcSQzFjP91valxdiuZ6hToz83clufRvD7ySBLNIrJnqING9U8FLd-U8vU8fSkwTbpBb4sNISihswFE1J-eRnxtjS80ThSERaoZceOSqFH2dDElvTqjkjTRl0Oy1CS70PA-pF5moh3pz63X5Fj3EKPZZXzPOqoRPYNBnrS0nafqME4pKGVy1m00]--></g></svg>