<svg xmlns="http://www.w3.org/2000/svg" xmlns:xlink="http://www.w3.org/1999/xlink" contentStyleType="text/css" data-diagram-type="CLASS" height="1407px" preserveAspectRatio="none" style="width:2555px;height:1407px;background:#FFFFFF;" version="1.1" viewBox="0 0 2555 1407" width="2555px" zoomAndPan="magnify"><defs/><g><!--cluster Exo System Architecture--><g class="cluster" data-entity="Exo System Architecture" data-source-line="10" data-uid="ent0002" id="cluster_Exo System Architecture"><path d="M8.5,301 L204.126,301 A3.75,3.75 0 0 1 206.626,303.5 L213.626,323.2969 L2546.2,323.2969 A2.5,2.5 0 0 1 2548.7,325.7969 L2548.7,1149.5 A2.5,2.5 0 0 1 2546.2,1152 L8.5,1152 A2.5,2.5 0 0 1 6,1149.5 L6,303.5 A2.5,2.5 0 0 1 8.5,301" fill="none" style="stroke:#000000;stroke-width:1.5;"/><line style="stroke:#000000;stroke-width:1.5;" x1="6" x2="213.626" y1="323.2969" y2="323.2969"/><text fill="#000000" font-family="sans-serif" font-size="14" font-weight="bold" lengthAdjust="spacing" textLength="194.626" x="10" y="315.9951">Exo System Architecture</text></g><!--cluster node--><g class="cluster" data-entity="node" data-source-line="96" data-uid="ent0061" id="cluster_node"><path d="M796.68,6 L836.7816,6 A3.75,3.75 0 0 1 839.2816,8.5 L846.2816,28.2969 L1433,28.2969 A2.5,2.5 0 0 1 1435.5,30.7969 L1435.5,266.5 A2.5,2.5 0 0 1 1433,269 L796.68,269 A2.5,2.5 0 0 1 794.18,266.5 L794.18,8.5 A2.5,2.5 0 0 1 796.68,6" fill="none" style="stroke:#000000;stroke-width:1.5;"/><line style="stroke:#000000;stroke-width:1.5;" x1="794.18" x2="846.2816" y1="28.2969" y2="28.2969"/><text fill="#000000" font-family="sans-serif" font-size="14" font-weight="bold" lengthAdjust="spacing" textLength="39.1016" x="798.18" y="20.9951">node</text></g><g class="entity" data-entity="main" data-source-line="13" data-uid="ent0003" id="entity_main"><rect fill="#F1F1F1" height="50.2656" rx="2.5" ry="2.5" style="stroke:#181818;stroke-width:0.5;" width="90.8301" x="99.47" y="335.87"/><text fill="#000000" font-family="sans-serif" font-size="12" font-style="italic" lengthAdjust="spacing" textLength="80.8301" x="104.47" y="347.0087">&#171;entry point&#187;</text><text fill="#000000" font-family="sans-serif" font-size="14" lengthAdjust="spacing" textLength="34.9795" x="127.3953" y="364.8339">main</text><line style="stroke:#181818;stroke-width:0.5;" x1="100.47" x2="189.3001" y1="370.1356" y2="370.1356"/></g><g class="entity" data-entity="node" data-source-line="14" data-uid="ent0004" id="entity_node"><rect fill="#F1F1F1" height="50.2656" rx="2.5" ry="2.5" style="stroke:#181818;stroke-width:0.5;" width="128.8398" x="738.12" y="887.87"/><text fill="#000000" font-family="sans-serif" font-size="12" font-style="italic" lengthAdjust="spacing" textLength="118.8398" x="743.12" y="899.0087">&#171;core orchestrator&#187;</text><text fill="#000000" font-family="sans-serif" font-size="14" lengthAdjust="spacing" textLength="80.6436" x="762.2181" y="916.8339">node: Node</text><line style="stroke:#181818;stroke-width:0.5;" x1="739.12" x2="865.9598" y1="922.1356" y2="922.1356"/></g><g class="entity" data-entity="topology" data-source-line="15" data-uid="ent0005" id="entity_topology"><rect fill="#F1F1F1" height="50.2656" rx="2.5" ry="2.5" style="stroke:#181818;stroke-width:0.5;" width="148.4971" x="1718.1" y="918.87"/><text fill="#000000" font-family="sans-serif" font-size="12" font-style="italic" lengthAdjust="spacing" textLength="97.6289" x="1743.5341" y="930.0087">&#171;network state&#187;</text><text fill="#000000" font-family="sans-serif" font-size="14" lengthAdjust="spacing" textLength="134.4971" x="1725.1" y="947.8339">topology: Topology</text><line style="stroke:#181818;stroke-width:0.5;" x1="1719.1" x2="1865.5971" y1="953.1356" y2="953.1356"/></g><g class="entity" data-entity="topology_viz" data-source-line="16" data-uid="ent0006" id="entity_topology_viz"><rect fill="#F1F1F1" height="50.2656" rx="2.5" ry="2.5" style="stroke:#181818;stroke-width:0.5;" width="195.8359" x="1234.15" y="1044.87"/><text fill="#000000" font-family="sans-serif" font-size="12" font-style="italic" lengthAdjust="spacing" textLength="89.6367" x="1287.2496" y="1056.0087">&#171;visualization&#187;</text><text fill="#000000" font-family="sans-serif" font-size="14" lengthAdjust="spacing" textLength="181.8359" x="1241.15" y="1073.8339">topology_viz: TopologyViz</text><line style="stroke:#181818;stroke-width:0.5;" x1="1235.15" x2="1428.9859" y1="1079.1356" y2="1079.1356"/></g><g class="entity" data-entity="udp_discovery" data-source-line="19" data-uid="ent0007" id="entity_udp_discovery"><rect fill="#F1F1F1" height="50.2656" rx="2.5" ry="2.5" style="stroke:#181818;stroke-width:0.5;" width="189.0752" x="50.35" y="1085.87"/><text fill="#000000" font-family="sans-serif" font-size="12" font-style="italic" lengthAdjust="spacing" textLength="119.1445" x="85.3153" y="1097.0087">&#171;service discovery&#187;</text><text fill="#000000" font-family="sans-serif" font-size="14" lengthAdjust="spacing" textLength="175.0752" x="57.35" y="1114.8339">discovery: UDPDiscovery</text><line style="stroke:#181818;stroke-width:0.5;" x1="51.35" x2="238.4252" y1="1120.1356" y2="1120.1356"/></g><g class="entity" data-entity="tailscale_discovery" data-source-line="20" data-uid="ent0008" id="entity_tailscale_discovery"><rect fill="#F1F1F1" height="50.2656" rx="2.5" ry="2.5" style="stroke:#181818;stroke-width:0.5;" width="220.5889" x="34.59" y="635.87"/><text fill="#000000" font-family="sans-serif" font-size="12" font-style="italic" lengthAdjust="spacing" textLength="119.1445" x="85.3122" y="647.0087">&#171;service discovery&#187;</text><text fill="#000000" font-family="sans-serif" font-size="14" lengthAdjust="spacing" textLength="206.5889" x="41.59" y="664.8339">discovery: TailscaleDiscovery</text><line style="stroke:#181818;stroke-width:0.5;" x1="35.59" x2="254.1789" y1="670.1356" y2="670.1356"/></g><g class="entity" data-entity="manual_discovery" data-source-line="21" data-uid="ent0009" id="entity_manual_discovery"><rect fill="#F1F1F1" height="50.2656" rx="2.5" ry="2.5" style="stroke:#181818;stroke-width:0.5;" width="210.4785" x="39.65" y="785.87"/><text fill="#000000" font-family="sans-serif" font-size="12" font-style="italic" lengthAdjust="spacing" textLength="119.1445" x="85.317" y="797.0087">&#171;service discovery&#187;</text><text fill="#000000" font-family="sans-serif" font-size="14" lengthAdjust="spacing" textLength="196.4785" x="46.65" y="814.8339">discovery: ManualDiscovery</text><line style="stroke:#181818;stroke-width:0.5;" x1="40.65" x2="249.1285" y1="820.1356" y2="820.1356"/></g><g class="entity" data-entity="grpc_server" data-source-line="22" data-uid="ent0010" id="entity_grpc_server"><rect fill="#F1F1F1" height="50.2656" rx="2.5" ry="2.5" style="stroke:#181818;stroke-width:0.5;" width="152.1885" x="68.79" y="485.87"/><text fill="#000000" font-family="sans-serif" font-size="12" font-style="italic" lengthAdjust="spacing" textLength="105.2168" x="92.2758" y="497.0087">&#171;network server&#187;</text><text fill="#000000" font-family="sans-serif" font-size="14" lengthAdjust="spacing" textLength="138.1885" x="75.79" y="514.8339">server: GRPCServer</text><line style="stroke:#181818;stroke-width:0.5;" x1="69.79" x2="219.9785" y1="520.1356" y2="520.1356"/></g><g class="entity" data-entity="peer_handles" data-source-line="23" data-uid="ent0011" id="entity_peer_handles"><rect fill="#F1F1F1" height="50.2656" rx="2.5" ry="2.5" style="stroke:#181818;stroke-width:0.5;" width="245.7725" x="22" y="935.87"/><text fill="#000000" font-family="sans-serif" font-size="12" font-style="italic" lengthAdjust="spacing" textLength="114.9023" x="87.4351" y="947.0087">&#171;connected peers&#187;</text><text fill="#000000" font-family="sans-serif" font-size="14" lengthAdjust="spacing" textLength="231.7725" x="29" y="964.8339">peer_handles: List&lt;PeerHandle&gt;</text><line style="stroke:#181818;stroke-width:0.5;" x1="23" x2="266.7725" y1="970.1356" y2="970.1356"/></g><g class="entity" data-entity="inference_engine" data-source-line="26" data-uid="ent0012" id="entity_inference_engine"><rect fill="#F1F1F1" height="50.2656" rx="2.5" ry="2.5" style="stroke:#181818;stroke-width:0.5;" width="257.8516" x="1203.15" y="540.87"/><text fill="#000000" font-family="sans-serif" font-size="12" font-style="italic" lengthAdjust="spacing" textLength="96.6211" x="1283.7652" y="552.0087">&#171;abstract base&#187;</text><text fill="#000000" font-family="sans-serif" font-size="14" lengthAdjust="spacing" textLength="243.8516" x="1210.15" y="569.8339">inference_engine: InferenceEngine</text><line style="stroke:#181818;stroke-width:0.5;" x1="1204.15" x2="1460.0016" y1="575.1356" y2="575.1356"/></g><g class="entity" data-entity="mlx_engine" data-source-line="27" data-uid="ent0013" id="entity_mlx_engine"><rect fill="#F1F1F1" height="50.2656" rx="2.5" ry="2.5" style="stroke:#181818;stroke-width:0.5;" width="350" x="627.54" y="335.87"/><text fill="#000000" font-family="sans-serif" font-size="12" font-style="italic" lengthAdjust="spacing" textLength="100.207" x="752.4365" y="347.0087">&#171;MLX inference&#187;</text><text fill="#000000" font-family="sans-serif" font-size="14" lengthAdjust="spacing" textLength="336" x="634.54" y="364.8339">mlx_engine: MLXDynamicShardInferenceEngine</text><line style="stroke:#181818;stroke-width:0.5;" x1="628.54" x2="976.54" y1="370.1356" y2="370.1356"/></g><g class="entity" data-entity="tinygrad_engine" data-source-line="28" data-uid="ent0014" id="entity_tinygrad_engine"><rect fill="#F1F1F1" height="50.2656" rx="2.5" ry="2.5" style="stroke:#181818;stroke-width:0.5;" width="415.0713" x="595" y="737.87"/><text fill="#000000" font-family="sans-serif" font-size="12" font-style="italic" lengthAdjust="spacing" textLength="127.8398" x="738.6157" y="749.0087">&#171;Tinygrad inference&#187;</text><text fill="#000000" font-family="sans-serif" font-size="14" lengthAdjust="spacing" textLength="401.0713" x="602" y="766.8339">tinygrad_engine: TinygradDynamicShardInferenceEngine</text><line style="stroke:#181818;stroke-width:0.5;" x1="596" x2="1009.0713" y1="772.1356" y2="772.1356"/></g><g class="entity" data-entity="dummy_engine" data-source-line="29" data-uid="ent0015" id="entity_dummy_engine"><rect fill="#F1F1F1" height="50.2656" rx="2.5" ry="2.5" style="stroke:#181818;stroke-width:0.5;" width="300.5283" x="652.27" y="587.87"/><text fill="#000000" font-family="sans-serif" font-size="12" font-style="italic" lengthAdjust="spacing" textLength="100.6172" x="752.2256" y="599.0087">&#171;Test inference&#187;</text><text fill="#000000" font-family="sans-serif" font-size="14" lengthAdjust="spacing" textLength="286.5283" x="659.27" y="616.8339">dummy_engine: DummyInferenceEngine</text><line style="stroke:#181818;stroke-width:0.5;" x1="653.27" x2="951.7983" y1="622.1356" y2="622.1356"/></g><g class="entity" data-entity="chatgpt_api" data-source-line="32" data-uid="ent0016" id="entity_chatgpt_api"><rect fill="#F1F1F1" height="50.2656" rx="2.5" ry="2.5" style="stroke:#181818;stroke-width:0.5;" width="127.2305" x="367.77" y="461.87"/><text fill="#000000" font-family="sans-serif" font-size="12" font-style="italic" lengthAdjust="spacing" textLength="68.3496" x="397.2104" y="473.0087">&#171;REST API&#187;</text><text fill="#000000" font-family="sans-serif" font-size="14" lengthAdjust="spacing" textLength="113.2305" x="374.77" y="490.8339">api: ChatGPTAPI</text><line style="stroke:#181818;stroke-width:0.5;" x1="368.77" x2="494.0005" y1="496.1356" y2="496.1356"/></g><g class="entity" data-entity="shard_downloader" data-source-line="33" data-uid="ent0017" id="entity_shard_downloader"><rect fill="#F1F1F1" height="50.2656" rx="2.5" ry="2.5" style="stroke:#181818;stroke-width:0.5;" width="276.5615" x="1654.07" y="666.87"/><text fill="#000000" font-family="sans-serif" font-size="12" font-style="italic" lengthAdjust="spacing" textLength="136.248" x="1724.2267" y="678.0087">&#171;model management&#187;</text><text fill="#000000" font-family="sans-serif" font-size="14" lengthAdjust="spacing" textLength="262.5615" x="1661.07" y="695.8339">shard_downloader: ShardDownloader</text><line style="stroke:#181818;stroke-width:0.5;" x1="1655.07" x2="1929.6315" y1="701.1356" y2="701.1356"/></g><g class="entity" data-entity="shard" data-source-line="36" data-uid="ent0018" id="entity_shard"><rect fill="#F1F1F1" height="50.2656" rx="2.5" ry="2.5" style="stroke:#181818;stroke-width:0.5;" width="116.793" x="2415.91" y="591.87"/><text fill="#000000" font-family="sans-serif" font-size="12" font-style="italic" lengthAdjust="spacing" textLength="106.793" x="2420.91" y="603.0087">&#171;model partition&#187;</text><text fill="#000000" font-family="sans-serif" font-size="14" lengthAdjust="spacing" textLength="89.5371" x="2429.5379" y="620.8339">shard: Shard</text><line style="stroke:#181818;stroke-width:0.5;" x1="2416.91" x2="2531.703" y1="626.1356" y2="626.1356"/></g><g class="entity" data-entity="partition_strategy" data-source-line="37" data-uid="ent0019" id="entity_partition_strategy"><rect fill="#F1F1F1" height="50.2656" rx="2.5" ry="2.5" style="stroke:#181818;stroke-width:0.5;" width="443.9941" x="1110.07" y="792.87"/><text fill="#000000" font-family="sans-serif" font-size="12" font-style="italic" lengthAdjust="spacing" textLength="84.1699" x="1289.9821" y="804.0087">&#171;partitioning&#187;</text><text fill="#000000" font-family="sans-serif" font-size="14" lengthAdjust="spacing" textLength="429.9941" x="1117.07" y="821.8339">partition_strategy: RingMemoryWeightedPartitioningStrategy</text><line style="stroke:#181818;stroke-width:0.5;" x1="1111.07" x2="1553.0641" y1="827.1356" y2="827.1356"/></g><g class="entity" data-entity="device_capabilities" data-source-line="38" data-uid="ent0020" id="entity_device_capabilities"><rect fill="#F1F1F1" height="50.2656" rx="2.5" ry="2.5" style="stroke:#181818;stroke-width:0.5;" width="285.2773" x="2030.63" y="1037.87"/><text fill="#000000" font-family="sans-serif" font-size="12" font-style="italic" lengthAdjust="spacing" textLength="97.998" x="2124.2696" y="1049.0087">&#171;hardware info&#187;</text><text fill="#000000" font-family="sans-serif" font-size="14" lengthAdjust="spacing" textLength="271.2773" x="2037.63" y="1066.8339">device_capabilities: DeviceCapabilities</text><line style="stroke:#181818;stroke-width:0.5;" x1="2031.63" x2="2314.9073" y1="1072.1356" y2="1072.1356"/></g><g class="entity" data-entity="partitions" data-source-line="39" data-uid="ent0021" id="entity_partitions"><rect fill="#F1F1F1" height="50.2656" rx="2.5" ry="2.5" style="stroke:#181818;stroke-width:0.5;" width="196.7861" x="2074.88" y="816.87"/><text fill="#000000" font-family="sans-serif" font-size="12" font-style="italic" lengthAdjust="spacing" textLength="109.4414" x="2118.5524" y="828.0087">&#171;shard partitions&#187;</text><text fill="#000000" font-family="sans-serif" font-size="14" lengthAdjust="spacing" textLength="182.7861" x="2081.88" y="845.8339">partitions: List&lt;Partition&gt;</text><line style="stroke:#181818;stroke-width:0.5;" x1="2075.88" x2="2270.6661" y1="851.1356" y2="851.1356"/></g><!--class on_token--><g class="entity" data-entity="on_token" data-source-line="96" data-uid="ent0060" id="entity_on_token"><rect fill="#F1F1F1" height="48" rx="2.5" ry="2.5" style="stroke:#181818;stroke-width:0.5;" width="96.0869" x="1284.03" y="197"/><ellipse cx="1299.03" cy="213" fill="#ADD1B2" rx="11" ry="11" style="stroke:#181818;stroke-width:1;"/><path d="M1301.9988,218.6406 Q1301.4206,218.9375 1300.78,219.0781 Q1300.1394,219.2344 1299.4363,219.2344 Q1296.9363,219.2344 1295.6081,217.5938 Q1294.2956,215.9375 1294.2956,212.8125 Q1294.2956,209.6875 1295.6081,208.0313 Q1296.9363,206.375 1299.4363,206.375 Q1300.1394,206.375 1300.78,206.5313 Q1301.4363,206.6875 1301.9988,206.9844 L1301.9988,209.7031 Q1301.3738,209.125 1300.78,208.8594 Q1300.1863,208.5781 1299.5613,208.5781 Q1298.2175,208.5781 1297.53,209.6563 Q1296.8425,210.7188 1296.8425,212.8125 Q1296.8425,214.9063 1297.53,215.9844 Q1298.2175,217.0469 1299.5613,217.0469 Q1300.1863,217.0469 1300.78,216.7813 Q1301.3738,216.5 1301.9988,215.9219 L1301.9988,218.6406 Z " fill="#000000"/><text fill="#000000" font-family="sans-serif" font-size="14" lengthAdjust="spacing" textLength="64.0869" x="1313.03" y="217.8467">on_token</text><line style="stroke:#181818;stroke-width:0.5;" x1="1285.03" x2="1379.1169" y1="229" y2="229"/><line style="stroke:#181818;stroke-width:0.5;" x1="1285.03" x2="1379.1169" y1="237" y2="237"/></g><!--class on_opaque_status--><g class="entity" data-entity="on_opaque_status" data-source-line="97" data-uid="ent0063" id="entity_on_opaque_status"><rect fill="#F1F1F1" height="48" rx="2.5" ry="2.5" style="stroke:#181818;stroke-width:0.5;" width="158.8613" x="1252.64" y="49"/><ellipse cx="1267.64" cy="65" fill="#ADD1B2" rx="11" ry="11" style="stroke:#181818;stroke-width:1;"/><path d="M1270.6088,70.6406 Q1270.0306,70.9375 1269.39,71.0781 Q1268.7494,71.2344 1268.0463,71.2344 Q1265.5463,71.2344 1264.2181,69.5938 Q1262.9056,67.9375 1262.9056,64.8125 Q1262.9056,61.6875 1264.2181,60.0313 Q1265.5463,58.375 1268.0463,58.375 Q1268.7494,58.375 1269.39,58.5313 Q1270.0463,58.6875 1270.6088,58.9844 L1270.6088,61.7031 Q1269.9838,61.125 1269.39,60.8594 Q1268.7963,60.5781 1268.1713,60.5781 Q1266.8275,60.5781 1266.14,61.6563 Q1265.4525,62.7188 1265.4525,64.8125 Q1265.4525,66.9063 1266.14,67.9844 Q1266.8275,69.0469 1268.1713,69.0469 Q1268.7963,69.0469 1269.39,68.7813 Q1269.9838,68.5 1270.6088,67.9219 L1270.6088,70.6406 Z " fill="#000000"/><text fill="#000000" font-family="sans-serif" font-size="14" lengthAdjust="spacing" textLength="126.8613" x="1281.64" y="69.8467">on_opaque_status</text><line style="stroke:#181818;stroke-width:0.5;" x1="1253.64" x2="1410.5013" y1="81" y2="81"/><line style="stroke:#181818;stroke-width:0.5;" x1="1253.64" x2="1410.5013" y1="89" y2="89"/></g><!--class discovery--><g class="entity" data-entity="discovery" data-source-line="50" data-uid="ent0027" id="entity_discovery"><rect fill="#F1F1F1" height="48" rx="2.5" ry="2.5" style="stroke:#181818;stroke-width:0.5;" width="99.2725" x="1282.44" y="1343"/><ellipse cx="1297.44" cy="1359" fill="#ADD1B2" rx="11" ry="11" style="stroke:#181818;stroke-width:1;"/><path d="M1300.4088,1364.6406 Q1299.8306,1364.9375 1299.19,1365.0781 Q1298.5494,1365.2344 1297.8463,1365.2344 Q1295.3463,1365.2344 1294.0181,1363.5938 Q1292.7056,1361.9375 1292.7056,1358.8125 Q1292.7056,1355.6875 1294.0181,1354.0313 Q1295.3463,1352.375 1297.8463,1352.375 Q1298.5494,1352.375 1299.19,1352.5313 Q1299.8463,1352.6875 1300.4088,1352.9844 L1300.4088,1355.7031 Q1299.7838,1355.125 1299.19,1354.8594 Q1298.5963,1354.5781 1297.9713,1354.5781 Q1296.6275,1354.5781 1295.94,1355.6563 Q1295.2525,1356.7188 1295.2525,1358.8125 Q1295.2525,1360.9063 1295.94,1361.9844 Q1296.6275,1363.0469 1297.9713,1363.0469 Q1298.5963,1363.0469 1299.19,1362.7813 Q1299.7838,1362.5 1300.4088,1361.9219 L1300.4088,1364.6406 Z " fill="#000000"/><text fill="#000000" font-family="sans-serif" font-size="14" lengthAdjust="spacing" textLength="67.2725" x="1311.44" y="1363.8467">discovery</text><line style="stroke:#181818;stroke-width:0.5;" x1="1283.44" x2="1380.7125" y1="1375" y2="1375"/><line style="stroke:#181818;stroke-width:0.5;" x1="1283.44" x2="1380.7125" y1="1383" y2="1383"/></g><!--class server--><g class="entity" data-entity="server" data-source-line="51" data-uid="ent0029" id="entity_server"><rect fill="#F1F1F1" height="48" rx="2.5" ry="2.5" style="stroke:#181818;stroke-width:0.5;" width="76.3174" x="1293.91" y="1195"/><ellipse cx="1308.91" cy="1211" fill="#ADD1B2" rx="11" ry="11" style="stroke:#181818;stroke-width:1;"/><path d="M1311.8788,1216.6406 Q1311.3006,1216.9375 1310.66,1217.0781 Q1310.0194,1217.2344 1309.3163,1217.2344 Q1306.8163,1217.2344 1305.4881,1215.5938 Q1304.1756,1213.9375 1304.1756,1210.8125 Q1304.1756,1207.6875 1305.4881,1206.0313 Q1306.8163,1204.375 1309.3163,1204.375 Q1310.0194,1204.375 1310.66,1204.5313 Q1311.3163,1204.6875 1311.8788,1204.9844 L1311.8788,1207.7031 Q1311.2538,1207.125 1310.66,1206.8594 Q1310.0663,1206.5781 1309.4413,1206.5781 Q1308.0975,1206.5781 1307.41,1207.6563 Q1306.7225,1208.7188 1306.7225,1210.8125 Q1306.7225,1212.9063 1307.41,1213.9844 Q1308.0975,1215.0469 1309.4413,1215.0469 Q1310.0663,1215.0469 1310.66,1214.7813 Q1311.2538,1214.5 1311.8788,1213.9219 L1311.8788,1216.6406 Z " fill="#000000"/><text fill="#000000" font-family="sans-serif" font-size="14" lengthAdjust="spacing" textLength="44.3174" x="1322.91" y="1215.8467">server</text><line style="stroke:#181818;stroke-width:0.5;" x1="1294.91" x2="1369.2274" y1="1227" y2="1227"/><line style="stroke:#181818;stroke-width:0.5;" x1="1294.91" x2="1369.2274" y1="1235" y2="1235"/></g><!--link main to node--><g class="link" data-entity-1="main" data-entity-2="node" data-source-line="44" data-uid="lnk22" id="link_main_node"><path codeLine="44" d="M190.72,369.38 C223.44,369.38 261.7,369.38 261.7,369.38 C261.7,369.38 261.7,919.87 261.7,919.87 C261.7,919.87 588.28,919.87 731.84,919.87" fill="none" id="main-to-node" style="stroke:#181818;stroke-width:1;"/><polygon fill="#181818" points="737.84,919.87,728.84,915.87,732.84,919.87,728.84,923.87,737.84,919.87" style="stroke:#181818;stroke-width:1;"/><text fill="#000000" font-family="sans-serif" font-size="13" lengthAdjust="spacing" textLength="126.585" x="134.7" y="860.2669">creates &amp; manages</text></g><!--link main to topology_viz--><g class="link" data-entity-1="main" data-entity-2="topology_viz" data-source-line="45" data-uid="lnk23" id="link_main_topology_viz"><path codeLine="45" d="M190.35,352.62 C246.51,352.62 334.7,352.62 334.7,352.62 C334.7,352.62 334.7,1072.2 334.7,1072.2 C334.7,1072.2 976.09,1072.2 1227.71,1072.2" fill="none" id="main-to-topology_viz" style="stroke:#181818;stroke-width:1;"/><polygon fill="#181818" points="1233.71,1072.2,1224.71,1068.2,1228.71,1072.2,1224.71,1076.2,1233.71,1072.2" style="stroke:#181818;stroke-width:1;"/><text fill="#000000" font-family="sans-serif" font-size="13" lengthAdjust="spacing" textLength="115.2861" x="353.24" y="1085.2669">creates (optional)</text></g><!--link main to chatgpt_api--><g class="link" data-entity-1="main" data-entity-2="chatgpt_api" data-source-line="46" data-uid="lnk24" id="link_main_chatgpt_api"><path codeLine="46" d="M145.7,386.61 C145.7,419.91 145.7,473.87 145.7,473.87 C145.7,473.87 277.04,473.87 361.27,473.87" fill="none" id="main-to-chatgpt_api" style="stroke:#181818;stroke-width:1;"/><polygon fill="#181818" points="367.27,473.87,358.27,469.87,362.27,473.87,358.27,477.87,367.27,473.87" style="stroke:#181818;stroke-width:1;"/><text fill="#000000" font-family="sans-serif" font-size="13" lengthAdjust="spacing" textLength="48.3247" x="163.86" y="469.9369">creates</text></g><!--link node to topology--><g class="link" data-entity-1="node" data-entity-2="topology" data-source-line="48" data-uid="lnk25" id="link_node_topology"><path codeLine="48" d="M867.1,933.32 C1043.09,933.32 1524.54,933.32 1711.77,933.32" fill="none" id="node-to-topology" style="stroke:#181818;stroke-width:1;"/><polygon fill="#181818" points="1717.77,933.32,1708.77,929.32,1712.77,933.32,1708.77,937.32,1717.77,933.32" style="stroke:#181818;stroke-width:1;"/><text fill="#000000" font-family="sans-serif" font-size="13" lengthAdjust="spacing" textLength="153.8481" x="1138.44" y="946.3869">manages network state</text></g><!--reverse link node to topology--><g class="link" data-entity-1="node" data-entity-2="topology" data-source-line="85" data-uid="lnk52" id="link_node_topology"><path codeLine="85" d="M879.1,928.5 C1055.09,928.5 1530.54,928.5 1717.77,928.5" fill="none" id="node-backto-topology" style="stroke:#181818;stroke-width:1;"/><polygon fill="none" points="867.1,928.5,873.1,932.5,879.1,928.5,873.1,924.5,867.1,928.5" style="stroke:#181818;stroke-width:1;"/><text fill="#000000" font-family="sans-serif" font-size="13" lengthAdjust="spacing" textLength="129.1685" x="1293.44" y="941.5669">has-a (composition)</text></g><!--link node to inference_engine--><g class="link" data-entity-1="node" data-entity-2="inference_engine" data-source-line="49" data-uid="lnk26" id="link_node_inference_engine"><path codeLine="49" d="M867.45,898.2 C946.82,898.2 1070.7,898.2 1070.7,898.2 C1070.7,898.2 1070.7,569.07 1070.7,569.07 C1070.7,569.07 1131.07,569.07 1196.92,569.07" fill="none" id="node-to-inference_engine" style="stroke:#181818;stroke-width:1;"/><polygon fill="#181818" points="1202.92,569.07,1193.92,565.07,1197.92,569.07,1193.92,573.07,1202.92,569.07" style="stroke:#181818;stroke-width:1;"/><text fill="#000000" font-family="sans-serif" font-size="13" lengthAdjust="spacing" textLength="117.0762" x="1071.7" y="782.2169">uses for inference</text></g><!--reverse link node to inference_engine--><g class="link" data-entity-1="node" data-entity-2="inference_engine" data-source-line="86" data-uid="lnk53" id="link_node_inference_engine"><path codeLine="86" d="M879.21,903.37 C964.17,903.37 1090.7,903.37 1090.7,903.37 C1090.7,903.37 1090.7,578.47 1090.7,578.47 C1090.7,578.47 1145.52,578.47 1202.91,578.47" fill="none" id="node-backto-inference_engine" style="stroke:#181818;stroke-width:1;"/><polygon fill="none" points="867.21,903.37,873.21,907.37,879.21,903.37,873.21,899.37,867.21,903.37" style="stroke:#181818;stroke-width:1;"/><text fill="#000000" font-family="sans-serif" font-size="13" lengthAdjust="spacing" textLength="35.6357" x="1054.7" y="809.6269">has-a</text></g><!--link node to discovery--><g class="link" data-entity-1="node" data-entity-2="discovery" data-source-line="50" data-uid="lnk28" id="link_node_discovery"><path codeLine="50" d="M756.7,938.38 C756.7,1033.99 756.7,1367 756.7,1367 C756.7,1367 1136.03,1367 1276.02,1367" fill="none" id="node-to-discovery" style="stroke:#181818;stroke-width:1;"/><polygon fill="#181818" points="1282.02,1367,1273.02,1363,1277.02,1367,1273.02,1371,1282.02,1367" style="stroke:#181818;stroke-width:1;"/><text fill="#000000" font-family="sans-serif" font-size="13" lengthAdjust="spacing" textLength="152.1152" x="652.05" y="1380.0669">uses for peer discovery</text></g><!--reverse link node to discovery--><g class="link" data-entity-1="node" data-entity-2="discovery" data-source-line="87" data-uid="lnk54" id="link_node_discovery"><path codeLine="87" d="M775.7,950.58 C775.7,1045.35 775.7,1359 775.7,1359 C775.7,1359 1145.65,1359 1282.21,1359" fill="none" id="node-backto-discovery" style="stroke:#181818;stroke-width:1;"/><polygon fill="none" points="775.7,938.58,771.7,944.58,775.7,950.58,779.7,944.58,775.7,938.58" style="stroke:#181818;stroke-width:1;"/><text fill="#000000" font-family="sans-serif" font-size="13" lengthAdjust="spacing" textLength="35.6357" x="819.74" y="1372.0669">has-a</text></g><!--link node to server--><g class="link" data-entity-1="node" data-entity-2="server" data-source-line="51" data-uid="lnk30" id="link_node_server"><path codeLine="51" d="M812.7,938.56 C812.7,1012.11 812.7,1219 812.7,1219 C812.7,1219 1167.09,1219 1287.46,1219" fill="none" id="node-to-server" style="stroke:#181818;stroke-width:1;"/><polygon fill="#181818" points="1293.46,1219,1284.46,1215,1288.46,1219,1284.46,1223,1293.46,1219" style="stroke:#181818;stroke-width:1;"/><text fill="#000000" font-family="sans-serif" font-size="13" lengthAdjust="spacing" textLength="174.916" x="913.86" y="1232.0669">provides network interface</text></g><!--link server to node--><g class="link" data-entity-1="server" data-entity-2="node" data-source-line="59" data-uid="lnk36" id="link_server_node"><path codeLine="59" d="M1293.78,1231 C1170.79,1231 793.7,1231 793.7,1231 C793.7,1231 793.7,1019.95 793.7,944.49" fill="none" id="server-to-node" style="stroke:#181818;stroke-width:1;"/><polygon fill="#181818" points="793.7,938.49,789.7,947.49,793.7,943.49,797.7,947.49,793.7,938.49" style="stroke:#181818;stroke-width:1;"/><text fill="#000000" font-family="sans-serif" font-size="13" lengthAdjust="spacing" textLength="164.3726" x="732.49" y="1244.0669">serves node functionality</text></g><!--reverse link node to server--><g class="link" data-entity-1="node" data-entity-2="server" data-source-line="88" data-uid="lnk55" id="link_node_server"><path codeLine="88" d="M830.7,950.58 C830.7,1022.1 830.7,1207 830.7,1207 C830.7,1207 1176.16,1207 1293.56,1207" fill="none" id="node-backto-server" style="stroke:#181818;stroke-width:1;"/><polygon fill="none" points="830.7,938.58,826.7,944.58,830.7,950.58,834.7,944.58,830.7,938.58" style="stroke:#181818;stroke-width:1;"/><text fill="#000000" font-family="sans-serif" font-size="13" lengthAdjust="spacing" textLength="35.6357" x="891.92" y="1203.0669">has-a</text></g><!--link node to shard_downloader--><g class="link" data-entity-1="node" data-entity-2="shard_downloader" data-source-line="52" data-uid="lnk31" id="link_node_shard_downloader"><path codeLine="52" d="M867.45,908.53 C1069.81,908.53 1675.7,908.53 1675.7,908.53 C1675.7,908.53 1675.7,780.38 1675.7,723.26" fill="none" id="node-to-shard_downloader" style="stroke:#181818;stroke-width:1;"/><polygon fill="#181818" points="1675.7,717.26,1671.7,726.26,1675.7,722.26,1679.7,726.26,1675.7,717.26" style="stroke:#181818;stroke-width:1;"/><text fill="#000000" font-family="sans-serif" font-size="13" lengthAdjust="spacing" textLength="178.2358" x="1188.21" y="921.5969">manages model downloads</text></g><!--reverse link node to shard_downloader--><g class="link" data-entity-1="node" data-entity-2="shard_downloader" data-source-line="89" data-uid="lnk56" id="link_node_shard_downloader"><path codeLine="89" d="M879.28,913.7 C1084.9,913.7 1697.7,913.7 1697.7,913.7 C1697.7,913.7 1697.7,775.67 1697.7,717.43" fill="none" id="node-backto-shard_downloader" style="stroke:#181818;stroke-width:1;"/><polygon fill="none" points="867.28,913.7,873.28,917.7,879.28,913.7,873.28,909.7,867.28,913.7" style="stroke:#181818;stroke-width:1;"/><text fill="#000000" font-family="sans-serif" font-size="13" lengthAdjust="spacing" textLength="35.6357" x="1381.62" y="909.7669">has-a</text></g><!--link node to partition_strategy--><g class="link" data-entity-1="node" data-entity-2="partition_strategy" data-source-line="53" data-uid="lnk32" id="link_node_partition_strategy"><path codeLine="53" d="M781.7,887.77 C781.7,866.14 781.7,838.47 781.7,838.47 C781.7,838.47 951.05,838.47 1103.8,838.47" fill="none" id="node-to-partition_strategy" style="stroke:#181818;stroke-width:1;"/><polygon fill="#181818" points="1109.8,838.47,1100.8,834.47,1104.8,838.47,1100.8,842.47,1109.8,838.47" style="stroke:#181818;stroke-width:1;"/><text fill="#000000" font-family="sans-serif" font-size="13" lengthAdjust="spacing" textLength="131.1997" x="789.1" y="851.5369">uses for partitioning</text></g><!--reverse link node to partition_strategy--><g class="link" data-entity-1="node" data-entity-2="partition_strategy" data-source-line="90" data-uid="lnk57" id="link_node_partition_strategy"><path codeLine="90" d="M824.7,875.75 C824.7,854.93 824.7,840.8 824.7,840.8 C824.7,840.8 973.47,840.8 1109.9,840.8" fill="none" id="node-backto-partition_strategy" style="stroke:#181818;stroke-width:1;"/><polygon fill="none" points="824.7,887.75,828.7,881.75,824.7,875.75,820.7,881.75,824.7,887.75" style="stroke:#181818;stroke-width:1;"/><text fill="#000000" font-family="sans-serif" font-size="13" lengthAdjust="spacing" textLength="35.6357" x="944.83" y="853.8669">has-a</text></g><!--link node to topology_viz--><g class="link" data-entity-1="node" data-entity-2="topology_viz" data-source-line="54" data-uid="lnk33" id="link_node_topology_viz"><path codeLine="54" d="M848.7,938.35 C848.7,980.05 848.7,1058.53 848.7,1058.53 C848.7,1058.53 1086.34,1058.53 1227.67,1058.53" fill="none" id="node-to-topology_viz" style="stroke:#181818;stroke-width:1;"/><polygon fill="#181818" points="1233.67,1058.53,1224.67,1054.53,1228.67,1058.53,1224.67,1062.53,1233.67,1058.53" style="stroke:#181818;stroke-width:1;"/><text fill="#000000" font-family="sans-serif" font-size="13" lengthAdjust="spacing" textLength="137.9092" x="843.09" y="1071.5969">updates visualization</text></g><!--link discovery to peer_handles--><g class="link" data-entity-1="discovery" data-entity-2="peer_handles" data-source-line="56" data-uid="lnk34" id="link_discovery_peer_handles"><path codeLine="56" d="M1282.22,1383 C1070.14,1383 253.7,1383 253.7,1383 C253.7,1383 253.7,1083.68 253.7,992.45" fill="none" id="discovery-to-peer_handles" style="stroke:#181818;stroke-width:1;"/><polygon fill="#181818" points="253.7,986.45,249.7,995.45,253.7,991.45,257.7,995.45,253.7,986.45" style="stroke:#181818;stroke-width:1;"/><text fill="#000000" font-family="sans-serif" font-size="13" lengthAdjust="spacing" textLength="180.4258" x="388.68" y="1396.0669">maintains peer connections</text></g><!--link discovery to device_capabilities--><g class="link" data-entity-1="discovery" data-entity-2="device_capabilities" data-source-line="57" data-uid="lnk35" id="link_discovery_device_capabilities"><path codeLine="57" d="M1382.2,1367 C1563.39,1367 2173.7,1367 2173.7,1367 C2173.7,1367 2173.7,1167.46 2173.7,1094.4" fill="none" id="discovery-to-device_capabilities" style="stroke:#181818;stroke-width:1;"/><polygon fill="#181818" points="2173.7,1088.4,2169.7,1097.4,2173.7,1093.4,2177.7,1097.4,2173.7,1088.4" style="stroke:#181818;stroke-width:1;"/><text fill="#000000" font-family="sans-serif" font-size="13" lengthAdjust="spacing" textLength="149.5571" x="1767.25" y="1380.0669">broadcasts capabilities</text></g><!--link inference_engine to shard--><g class="link" data-entity-1="inference_engine" data-entity-2="shard" data-source-line="61" data-uid="lnk37" id="link_inference_engine_shard"><path codeLine="61" d="M1461.24,574.38 C1756.54,574.38 2455.7,574.38 2455.7,574.38 C2455.7,574.38 2455.7,576.54 2455.7,585.71" fill="none" id="inference_engine-to-shard" style="stroke:#181818;stroke-width:1;"/><polygon fill="#181818" points="2455.7,591.71,2459.7,582.71,2455.7,586.71,2451.7,582.71,2455.7,591.71" style="stroke:#181818;stroke-width:1;"/><text fill="#000000" font-family="sans-serif" font-size="13" lengthAdjust="spacing" textLength="77.708" x="1889.14" y="587.4469">operates on</text></g><!--reverse link inference_engine to shard--><g class="link" data-entity-1="inference_engine" data-entity-2="shard" data-source-line="93" data-uid="lnk59" id="link_inference_engine_shard"><path codeLine="93" d="M1473.49,557.62 C1776.54,557.62 2494.7,557.62 2494.7,557.62 C2494.7,557.62 2494.7,575.38 2494.7,591.47" fill="none" id="inference_engine-backto-shard" style="stroke:#181818;stroke-width:1;"/><polygon fill="none" points="1461.49,557.62,1467.49,561.62,1473.49,557.62,1467.49,553.62,1461.49,557.62" style="stroke:#181818;stroke-width:1;"/><text fill="#000000" font-family="sans-serif" font-size="13" lengthAdjust="spacing" textLength="65.0127" x="1996.02" y="570.6869">processes</text></g><!--link inference_engine to shard_downloader--><g class="link" data-entity-1="inference_engine" data-entity-2="shard_downloader" data-source-line="62" data-uid="lnk38" id="link_inference_engine_shard_downloader"><path codeLine="62" d="M1375.7,591.43 C1375.7,623.15 1375.7,673.29 1375.7,673.29 C1375.7,673.29 1526.41,673.29 1647.61,673.29" fill="none" id="inference_engine-to-shard_downloader" style="stroke:#181818;stroke-width:1;"/><polygon fill="#181818" points="1653.61,673.29,1644.61,669.29,1648.61,673.29,1644.61,677.29,1653.61,673.29" style="stroke:#181818;stroke-width:1;"/><text fill="#000000" font-family="sans-serif" font-size="13" lengthAdjust="spacing" textLength="117.1143" x="1355.72" y="686.3569">downloads shards</text></g><!--link mlx_engine to inference_engine--><g class="link" data-entity-1="mlx_engine" data-entity-2="inference_engine" data-source-line="64" data-uid="lnk39" id="link_mlx_engine_inference_engine"><path codeLine="64" d="M965.7,386.53 C965.7,438.19 965.7,550.27 965.7,550.27 C965.7,550.27 1079.42,550.27 1184.9,550.27" fill="none" id="mlx_engine-to-inference_engine" style="stroke:#181818;stroke-width:1;"/><polygon fill="none" points="1202.9,550.27,1184.9,544.27,1184.9,556.27,1202.9,550.27" style="stroke:#181818;stroke-width:1;"/><text fill="#000000" font-family="sans-serif" font-size="13" lengthAdjust="spacing" textLength="76.9082" x="925.43" y="563.3369">implements</text></g><!--link tinygrad_engine to inference_engine--><g class="link" data-entity-1="tinygrad_engine" data-entity-2="inference_engine" data-source-line="65" data-uid="lnk40" id="link_tinygrad_engine_inference_engine"><path codeLine="65" d="M994.7,737.66 C994.7,683.15 994.7,559.67 994.7,559.67 C994.7,559.67 1089.84,559.67 1185.08,559.67" fill="none" id="tinygrad_engine-to-inference_engine" style="stroke:#181818;stroke-width:1;"/><polygon fill="none" points="1203.08,559.67,1185.08,553.67,1185.08,565.67,1203.08,559.67" style="stroke:#181818;stroke-width:1;"/><text fill="#000000" font-family="sans-serif" font-size="13" lengthAdjust="spacing" textLength="76.9082" x="1010.9" y="572.7369">implements</text></g><!--link dummy_engine to inference_engine--><g class="link" data-entity-1="dummy_engine" data-entity-2="inference_engine" data-source-line="66" data-uid="lnk41" id="link_dummy_engine_inference_engine"><path codeLine="66" d="M953.01,615 C1096.12,615 1289.7,615 1289.7,615 C1289.7,615 1289.7,621.32 1289.7,609.36" fill="none" id="dummy_engine-to-inference_engine" style="stroke:#181818;stroke-width:1;"/><polygon fill="none" points="1289.7,591.36,1283.7,609.36,1295.7,609.36,1289.7,591.36" style="stroke:#181818;stroke-width:1;"/><text fill="#000000" font-family="sans-serif" font-size="13" lengthAdjust="spacing" textLength="76.9082" x="1056.17" y="628.0669">implements</text></g><!--link partition_strategy to topology--><g class="link" data-entity-1="partition_strategy" data-entity-2="topology" data-source-line="68" data-uid="lnk42" id="link_partition_strategy_topology"><path codeLine="68" d="M1492.7,843.58 C1492.7,874.86 1492.7,923.68 1492.7,923.68 C1492.7,923.68 1623.15,923.68 1711.89,923.68" fill="none" id="partition_strategy-to-topology" style="stroke:#181818;stroke-width:1;"/><polygon fill="#181818" points="1717.89,923.68,1708.89,919.68,1712.89,923.68,1708.89,927.68,1717.89,923.68" style="stroke:#181818;stroke-width:1;"/><text fill="#000000" font-family="sans-serif" font-size="13" lengthAdjust="spacing" textLength="113.9976" x="1451.25" y="936.7469">analyzes network</text></g><!--link partition_strategy to partitions--><g class="link" data-entity-1="partition_strategy" data-entity-2="partitions" data-source-line="69" data-uid="lnk43" id="link_partition_strategy_partitions"><path codeLine="69" d="M1554.46,830 C1723.37,830 1941.56,830 2068.52,830" fill="none" id="partition_strategy-to-partitions" style="stroke:#181818;stroke-width:1;"/><polygon fill="#181818" points="2074.52,830,2065.52,826,2069.52,830,2065.52,834,2074.52,830" style="stroke:#181818;stroke-width:1;"/><text fill="#000000" font-family="sans-serif" font-size="13" lengthAdjust="spacing" textLength="65.6665" x="1748.49" y="843.0669">generates</text></g><!--link partitions to shard--><g class="link" data-entity-1="partitions" data-entity-2="shard" data-source-line="70" data-uid="lnk44" id="link_partitions_shard"><path codeLine="70" d="M2271.89,842 C2366.38,842 2494.7,842 2494.7,842 C2494.7,842 2494.7,707.22 2494.7,648.37" fill="none" id="partitions-to-shard" style="stroke:#181818;stroke-width:1;"/><polygon fill="#181818" points="2494.7,642.37,2490.7,651.37,2494.7,647.37,2498.7,651.37,2494.7,642.37" style="stroke:#181818;stroke-width:1;"/><text fill="#000000" font-family="sans-serif" font-size="13" lengthAdjust="spacing" textLength="52.8379" x="2430.11" y="855.0669">maps to</text></g><!--link chatgpt_api to node--><g class="link" data-entity-1="chatgpt_api" data-entity-2="node" data-source-line="72" data-uid="lnk45" id="link_chatgpt_api_node"><path codeLine="72" d="M431.7,512.45 C431.7,602.96 431.7,903.87 431.7,903.87 C431.7,903.87 625.7,903.87 731.94,903.87" fill="none" id="chatgpt_api-to-node" style="stroke:#181818;stroke-width:1;"/><polygon fill="#181818" points="737.94,903.87,728.94,899.87,732.94,903.87,728.94,907.87,737.94,903.87" style="stroke:#181818;stroke-width:1;"/><text fill="#000000" font-family="sans-serif" font-size="13" lengthAdjust="spacing" textLength="126.2676" x="304.7" y="874.3469">uses for processing</text></g><!--link chatgpt_api to inference_engine--><g class="link" data-entity-1="chatgpt_api" data-entity-2="inference_engine" data-source-line="73" data-uid="lnk46" id="link_chatgpt_api_inference_engine"><path codeLine="73" d="M495.29,487 C684.49,487 1228.7,487 1228.7,487 C1228.7,487 1228.7,511.47 1228.7,534.57" fill="none" id="chatgpt_api-to-inference_engine" style="stroke:#181818;stroke-width:1;"/><polygon fill="#181818" points="1228.7,540.57,1232.7,531.57,1228.7,535.57,1224.7,531.57,1228.7,540.57" style="stroke:#181818;stroke-width:1;"/><text fill="#000000" font-family="sans-serif" font-size="13" lengthAdjust="spacing" textLength="141.4131" x="746.78" y="500.0669">identifies engine type</text></g><!--link topology to device_capabilities--><g class="link" data-entity-1="topology" data-entity-2="device_capabilities" data-source-line="76" data-uid="lnk47" id="link_topology_device_capabilities"><path codeLine="76" d="M1866.89,944 C1944.14,944 2053.7,944 2053.7,944 C2053.7,944 2053.7,996.51 2053.7,1031.47" fill="none" id="topology-to-device_capabilities" style="stroke:#181818;stroke-width:1;"/><polygon fill="#181818" points="2053.7,1037.47,2057.7,1028.47,2053.7,1032.47,2049.7,1028.47,2053.7,1037.47" style="stroke:#181818;stroke-width:1;"/><text fill="#000000" font-family="sans-serif" font-size="13" lengthAdjust="spacing" textLength="169.6348" x="2008.03" y="957.0669">contains node capabilities</text></g><!--link topology to partitions--><g class="link" data-entity-1="topology" data-entity-2="partitions" data-source-line="77" data-uid="lnk48" id="link_topology_partitions"><path codeLine="77" d="M1792.7,918.54 C1792.7,893.54 1792.7,859.13 1792.7,859.13 C1792.7,859.13 1956.01,859.13 2068.77,859.13" fill="none" id="topology-to-partitions" style="stroke:#181818;stroke-width:1;"/><polygon fill="#181818" points="2074.77,859.13,2065.77,855.13,2069.77,859.13,2065.77,863.13,2074.77,859.13" style="stroke:#181818;stroke-width:1;"/><text fill="#000000" font-family="sans-serif" font-size="13" lengthAdjust="spacing" textLength="129.3652" x="1774.03" y="872.1969">generates based on</text></g><!--link udp_discovery to discovery--><g class="link" data-entity-1="udp_discovery" data-entity-2="discovery" data-source-line="80" data-uid="lnk49" id="link_udp_discovery_discovery"><path codeLine="80" d="M239.46,1115.63 C513.51,1115.63 1288.7,1115.63 1288.7,1115.63 C1288.7,1115.63 1288.7,1261.98 1288.7,1324.9" fill="none" id="udp_discovery-to-discovery" style="stroke:#181818;stroke-width:1;"/><polygon fill="none" points="1288.7,1342.9,1294.7,1324.9,1282.7,1324.9,1288.7,1342.9" style="stroke:#181818;stroke-width:1;"/><text fill="#000000" font-family="sans-serif" font-size="13" lengthAdjust="spacing" textLength="76.9082" x="800.71" y="1128.6969">implements</text></g><!--link tailscale_discovery to discovery--><g class="link" data-entity-1="tailscale_discovery" data-entity-2="discovery" data-source-line="81" data-uid="lnk50" id="link_tailscale_discovery_discovery"><path codeLine="81" d="M255.28,679.71 C492.74,679.71 1030.7,679.71 1030.7,679.71 C1030.7,679.71 1030.7,1351 1030.7,1351 C1030.7,1351 1178.27,1351 1263.97,1351" fill="none" id="tailscale_discovery-to-discovery" style="stroke:#181818;stroke-width:1;"/><polygon fill="none" points="1281.97,1351,1263.97,1345,1263.97,1357,1281.97,1351" style="stroke:#181818;stroke-width:1;"/><text fill="#000000" font-family="sans-serif" font-size="13" lengthAdjust="spacing" textLength="76.9082" x="1031.7" y="749.3469">implements</text></g><!--link manual_discovery to discovery--><g class="link" data-entity-1="manual_discovery" data-entity-2="discovery" data-source-line="82" data-uid="lnk51" id="link_manual_discovery_discovery"><path codeLine="82" d="M250.35,814.5 C278.72,814.5 301.7,814.5 301.7,814.5 C301.7,814.5 301.7,1375 301.7,1375 C301.7,1375 1057.68,1375 1264.03,1375" fill="none" id="manual_discovery-to-discovery" style="stroke:#181818;stroke-width:1;"/><polygon fill="none" points="1282.03,1375,1264.03,1369,1264.03,1381,1282.03,1375" style="stroke:#181818;stroke-width:1;"/><text fill="#000000" font-family="sans-serif" font-size="13" lengthAdjust="spacing" textLength="76.9082" x="408.94" y="1371.0669">implements</text></g><!--reverse link shard_downloader to shard--><g class="link" data-entity-1="shard_downloader" data-entity-2="shard" data-source-line="92" data-uid="lnk58" id="link_shard_downloader_shard"><path codeLine="92" d="M1943.01,692 C2137.47,692 2455.7,692 2455.7,692 C2455.7,692 2455.7,664.15 2455.7,642.39" fill="none" id="shard_downloader-backto-shard" style="stroke:#181818;stroke-width:1;"/><polygon fill="none" points="1931.01,692,1937.01,696,1943.01,692,1937.01,688,1931.01,692" style="stroke:#181818;stroke-width:1;"/><text fill="#000000" font-family="sans-serif" font-size="13" lengthAdjust="spacing" textLength="59.8584" x="2158.16" y="705.0669">manages</text></g><!--link node to on_token--><g class="link" data-entity-1="node" data-entity-2="on_token" data-source-line="96" data-uid="lnk62" id="link_node_on_token"><path codeLine="96" d="M867.42,893.03 C940.94,893.03 1050.7,893.03 1050.7,893.03 C1050.7,893.03 1050.7,221 1050.7,221 C1050.7,221 1197.25,221 1277.7,221" fill="none" id="node-to-on_token" style="stroke:#181818;stroke-width:1;"/><polygon fill="#181818" points="1283.7,221,1274.7,217,1278.7,221,1274.7,225,1283.7,221" style="stroke:#181818;stroke-width:1;"/><text fill="#000000" font-family="sans-serif" font-size="13" lengthAdjust="spacing" textLength="164.3726" x="885.7" y="545.2269">provides callback system</text></g><!--link node to on_opaque_status--><g class="link" data-entity-1="node" data-entity-2="on_opaque_status" data-source-line="97" data-uid="lnk64" id="link_node_on_opaque_status"><path codeLine="97" d="M803.4,73 C821.13,73 1102.9,73 1246.23,73" fill="none" id="node-to-on_opaque_status" style="stroke:#181818;stroke-width:1;"/><polygon fill="#181818" points="1252.23,73,1243.23,69,1247.23,73,1243.23,77,1252.23,73" style="stroke:#181818;stroke-width:1;"/><text fill="#000000" font-family="sans-serif" font-size="13" lengthAdjust="spacing" textLength="164.0933" x="862.82" y="86.0669">provides status callbacks</text></g><!--link topology_viz to topology--><g class="link" data-entity-1="topology_viz" data-entity-2="topology" data-source-line="100" data-uid="lnk65" id="link_topology_viz_topology"><path codeLine="100" d="M1430.32,1066.5 C1565.6,1066.5 1792.7,1066.5 1792.7,1066.5 C1792.7,1066.5 1792.7,1011.26 1792.7,975.38" fill="none" id="topology_viz-to-topology" style="stroke:#181818;stroke-width:1;"/><polygon fill="#181818" points="1792.7,969.38,1788.7,978.38,1792.7,974.38,1796.7,978.38,1792.7,969.38" style="stroke:#181818;stroke-width:1;"/><text fill="#000000" font-family="sans-serif" font-size="13" lengthAdjust="spacing" textLength="52.9331" x="1607.07" y="1079.5669">displays</text></g><!--link topology_viz to partitions--><g class="link" data-entity-1="topology_viz" data-entity-2="partitions" data-source-line="101" data-uid="lnk66" id="link_topology_viz_partitions"><path codeLine="101" d="M1332.7,1044.46 C1332.7,986.73 1332.7,851.13 1332.7,851.13 C1332.7,851.13 1846.82,851.13 2068.79,851.13" fill="none" id="topology_viz-to-partitions" style="stroke:#181818;stroke-width:1;"/><polygon fill="#181818" points="2074.79,851.13,2065.79,847.13,2069.79,851.13,2065.79,855.13,2074.79,851.13" style="stroke:#181818;stroke-width:1;"/><text fill="#000000" font-family="sans-serif" font-size="13" lengthAdjust="spacing" textLength="52.9331" x="1554.08" y="864.1969">displays</text></g><!--SRC=[dLTDSzis4BtZLw0-DCb1dVJAoNZ68tdSJ6rNOwbfRng8N4ceIG8583jqq__UnV8304adRM_Yxjk7tSNY0VgkW8EiWJzSBxTNzpUtrpmlXRMCbN1mt2bkvF7aU24Dv4wgcZ7xA6ijZAXuYO6kqS2LSISLEMfLW0NDVtp_Fh8QKJ_sLlQ6tmbPywLV32mNTS5_sV-1QrYcHVueZi0lhZyhlcciWufVcVma7RhF1YxuNunn_eOlbG5-ZsjrA3Gguk0N5P9VS66v_y4_V83QcOPh9MjtUHdXVAOPSH3QVo8wzyGAbmJhZ73A935EQLMgOvFnRVUBOdipncDRdfLvvDO91xEnkoVv4k8_oPU4mdkHvadQioZbY_2DHneg-hxbblMHtue6J4HUI9kh9p2OsQ-hzQh_8kfpeNU37xajc2UP0nziIPeHqrR8qkQYX9JFzUR_ntedQYmjfQp8zX_ul1TCncyUriiD_IQUez7vhlN5Uq6695u3cDq9Hwy4c_5RQTs7DPf-8iibSSKG6eownb0eo67xFVbO7y10ZOcEjqJsdXtKHpmkMS1Uau5M6QDm9R7teuSKUs7J4QhApmFPtUtlgwOMbSmt9s6AEUu0HrR4XyNImPHrSpIY6AYtdU5R_AD0NAIFV6MbubnLpR3Cod_DySOmJuf7CI6anb-jFqvQBhJC-F8atCrwYtuYo_7pgDqEVSZrSBtP-j1qc7o1kq8zrwKIXHyhAdar68XeZ4As2ZMZzCEBcbK1wGlbjX9E39esMgSZ3vG33qgbazrvZoQrj-v8aC2BpmDAm1rKoZI_WTTeADOz2ZsR3jTEyIGSrzCHEjqWy6Tkbmijzh94Y3yTAp8k8rkxIrCiKlkAdWLgA6wOcYzaE713lMccdgRjJ33vplxjhuu7A4aJxKdgzkvOjWVJsnX9_c9nsQfvndC3MBFbttUR524ImGt8jqfxAb6-2z1uX0OaOxH6J8NERXcUN0C1EJdj6J_xE_2WJF05UD332EVb9tW2k9EzZ6kZdcGH9O4t7vY3Y9admnnIRuUnTzaGCpDASLhHJ4rRqtNvh0lgSdAzCHRgf7LYuSte6iShfsuLcUVHTgTnSmEPyRt1Ad9X7Kf1vC77JDklQ5h8qhq43kSwRmT1keQnoSODJSGufS5GMLZBwy2qsqD_MoVc4wdrOl5bTbPafKiI6il6sllj4CvP8gp_OX4si-MZWSUXAPkNC6olXKIdE-D7gDkEiSWSTxGIsZ-968kFNhHJOUgCoi5QFtDZw5nf1POb3tumEfj_mtfPwPvMeJ8JwmmRpA_F6SvbEwMKOZ9gIVHy8-YkB_m0OJARyTE7qhGiVSZH_iKA4K_7p1FjQ_Z9- -jhOCpmPsXwNITn4Ts1fDhLOX5Fo4dOXU1lSrLfPQdoTm4tiqc43uWuYP5hKBonVNhSHeXPAMinR18zK0QHd1xp6DGD9L2hbg8iz_YtXblwenBfgV_n0wRWr2FKiMxdQSWqGcdnvnbs_d8vspYoi_G4bC2dM6jx1MQ9C8_EDBPSbwAP0IN3syF-0G00]--></g></svg>